<?xml version="1.0" standalone="no"?>
<!DOCTYPE svg PUBLIC "-//W3C//DTD SVG 20010904//EN"
 "http://www.w3.org/TR/2001/REC-SVG-20010904/DTD/svg10.dtd">
<svg version="1.0" xmlns="http://www.w3.org/2000/svg"
 width="400.000000pt" height="400.000000pt" viewBox="0 0 400.000000 400.000000"
 preserveAspectRatio="xMidYMid meet">
<metadata>
Created by potrace 1.11, written by Peter Selinger 2001-2013
</metadata>
<g transform="translate(0.000000,400.000000) scale(0.100000,-0.100000)"
fill="#000000" stroke="none">
<path d="M3588 3983 c7 -3 16 -2 19 1 4 3 -2 6 -13 5 -11 0 -14 -3 -6 -6z"/>
<path d="M3908 3983 c7 -3 16 -2 19 1 4 3 -2 6 -13 5 -11 0 -14 -3 -6 -6z"/>
<path d="M3960 3980 c0 -5 7 -7 15 -4 8 4 15 8 15 10 0 2 -7 4 -15 4 -8 0 -15
-4 -15 -10z"/>
<path d="M1875 3449 c-27 -10 -58 -24 -69 -30 -14 -8 -16 -8 -10 3 4 7 -5 3
-20 -10 -16 -12 -37 -22 -46 -22 -10 0 -23 -7 -30 -15 -7 -8 -21 -15 -31 -15
-26 0 -80 -39 -181 -132 -76 -71 -95 -95 -131 -168 -22 -47 -40 -88 -39 -92 1
-4 -2 -68 -7 -142 -6 -88 -6 -148 1 -173 5 -21 10 -48 10 -60 0 -13 6 -23 13
-23 16 0 28 -42 28 -97 1 -23 4 -40 7 -38 12 8 62 -109 65 -154 16 -192 38
-299 75 -363 6 -10 10 -24 10 -31 0 -8 9 -22 20 -32 25 -22 60 -90 60 -115 0
-10 6 -23 14 -27 7 -4 18 -18 25 -31 7 -12 20 -21 29 -20 9 2 17 -2 17 -7 0
-18 40 -62 63 -69 12 -4 20 -12 17 -17 -4 -5 7 -6 25 -3 22 5 30 3 30 -7 0
-15 47 -22 147 -23 28 0 49 -4 47 -8 -3 -5 0 -8 5 -8 6 0 11 6 11 14 0 8 5 18
12 22 8 5 9 2 5 -9 -6 -16 -4 -16 23 -2 16 8 37 15 47 15 17 0 155 87 161 102
2 5 8 6 13 2 5 -3 9 0 9 6 0 6 7 18 16 27 12 12 13 18 3 27 -8 8 -13 8 -16 -2
-3 -7 -14 -17 -24 -23 -18 -9 -19 -8 -7 11 7 11 25 26 41 33 29 13 38 33 10
22 -14 -5 -13 -1 4 14 12 12 27 21 32 21 11 0 27 47 23 66 -1 6 3 16 10 22 21
17 -2 -217 -24 -251 -10 -14 -18 -29 -18 -32 0 -3 -35 -51 -77 -106 -43 -56
-83 -110 -90 -121 -6 -12 -16 -24 -23 -28 -6 -4 -12 -13 -13 -21 -2 -8 -6 -20
-10 -26 -8 -12 5 -18 28 -13 5 1 17 2 27 3 9 1 14 5 12 9 -3 4 4 8 16 8 20 0
21 -3 16 -69 -3 -39 -2 -72 3 -76 5 -3 8 -19 6 -36 -4 -29 -2 -31 20 -26 14 2
25 -1 26 -7 0 -6 2 -20 4 -32 3 -11 -7 -40 -21 -65 -28 -51 -194 -386 -194
-394 0 -19 -95 -203 -102 -199 -5 3 -20 3 -32 0 -27 -7 -60 -68 -53 -97 7 -28
-17 -43 -37 -23 -27 27 -3 105 46 151 20 19 47 27 101 32 4 1 7 9 7 19 0 10 4
22 8 28 5 5 19 38 32 74 12 35 32 77 43 91 10 15 16 32 13 38 -4 6 0 14 8 17
9 3 14 10 11 14 -7 12 16 60 26 54 5 -3 6 2 3 10 -3 8 -1 23 5 33 8 14 10 15
11 3 0 -13 1 -13 10 0 13 20 13 33 0 25 -5 -3 -10 -2 -10 4 0 5 5 13 10 16 6
3 10 14 10 23 0 10 12 35 26 55 14 21 24 40 22 42 -2 3 -23 -5 -45 -16 -117
-58 -318 -65 -425 -17 -68 32 -128 84 -128 112 0 11 -7 34 -15 50 -14 26 -14
31 2 49 15 15 18 37 18 113 0 52 2 94 5 94 8 -1 37 -24 37 -30 0 -3 4 -16 8
-30 7 -23 8 -24 15 -5 5 14 1 27 -13 42 -12 13 -15 23 -9 23 9 0 7 8 -4 24 -8
14 -16 29 -16 33 0 4 -8 16 -18 25 -18 17 -18 16 -15 -25 2 -29 1 -36 -5 -22
-5 11 -12 76 -17 143 l-8 124 -24 -32 c-13 -18 -19 -30 -12 -26 6 4 11 3 11
-3 0 -5 -4 -12 -9 -15 -4 -3 -34 -59 -66 -123 -32 -65 -62 -119 -66 -121 -4
-2 -6 -9 -3 -15 2 -7 -3 -21 -11 -32 -16 -19 -16 -19 -6 2 14 27 14 36 1 28
-14 -9 -12 6 4 24 7 9 33 54 56 101 24 47 53 98 64 114 11 16 14 26 8 22 -19
-11 -94 -132 -127 -204 -14 -29 -60 -60 -72 -48 -3 2 5 7 17 11 11 4 28 18 37
32 16 25 16 26 -6 44 -28 23 -41 24 -67 3 -19 -15 -18 -15 3 -11 13 3 26 1 29
-4 3 -5 10 -9 15 -9 6 0 7 4 4 10 -3 6 1 7 9 4 13 -5 10 -12 -15 -39 -17 -18
-30 -35 -28 -38 2 -3 -5 -14 -15 -26 -24 -27 -12 -27 25 0 16 11 29 16 29 11
0 -11 -130 -88 -142 -84 -5 1 -7 -2 -4 -7 3 -5 -1 -15 -10 -22 -9 -7 -30 -37
-46 -66 -23 -41 -45 -62 -101 -98 -71 -44 -127 -89 -127 -100 0 -3 9 -5 20 -5
11 0 20 5 20 11 0 5 5 7 11 3 7 -4 8 -9 1 -13 -12 -7 -21 -86 -27 -241 -3 -63
-8 -133 -12 -155 -6 -37 -7 -54 -4 -89 1 -20 51 -14 62 7 5 9 11 78 14 154 5
161 21 267 42 288 13 13 12 15 -8 15 -17 0 -19 3 -10 14 9 11 9 15 -1 19 -8 4
-7 6 4 6 10 1 29 18 42 39 36 56 75 90 85 73 6 -9 11 -10 15 -2 4 6 1 11 -6
11 -13 1 60 71 93 90 15 8 15 6 0 -25 -9 -18 -24 -36 -34 -38 -10 -3 -25 -23
-33 -44 -9 -22 -25 -45 -37 -52 -18 -12 -22 -11 -34 5 -7 10 -13 13 -13 7 0
-7 5 -15 11 -19 7 -4 1 -16 -16 -34 -25 -26 -26 -34 -31 -156 -3 -71 -10 -149
-16 -174 -23 -110 -26 -135 -14 -142 8 -6 7 -8 -1 -8 -7 0 -13 -7 -13 -15 0
-8 5 -15 10 -15 6 0 10 -5 10 -11 0 -6 -9 -8 -22 -3 -21 6 -21 5 -9 -10 12
-14 11 -20 -10 -42 -13 -15 -52 -46 -86 -71 -63 -45 -78 -69 -46 -75 18 -3 21
-34 23 -220 0 -68 0 -68 28 -68 l29 0 8 118 c4 64 8 125 8 134 1 9 5 14 10 11
5 -3 6 -11 3 -19 -4 -9 2 -14 17 -15 l22 0 -22 -11 c-26 -13 -30 -28 -8 -28 8
0 15 5 15 10 0 6 3 10 8 10 4 0 6 -47 4 -105 -3 -100 -2 -105 17 -105 20 0 21
5 21 116 0 66 -4 113 -9 110 -5 -4 -7 2 -4 12 3 12 -4 21 -24 29 -24 11 -24
11 -3 6 46 -11 53 -8 62 25 12 46 36 52 66 16 13 -16 21 -22 17 -14 -5 8 -17
25 -27 36 -19 21 -19 21 1 27 13 3 21 -1 24 -12 2 -9 2 1 0 21 -4 34 0 42 55
98 l59 61 51 -5 c29 -3 52 0 52 5 0 5 -15 10 -32 11 -45 2 -52 3 -57 8 -7 7
31 270 38 270 3 0 6 -15 6 -32 0 -27 4 -34 23 -36 32 -5 27 -23 -5 -20 -20 2
-28 -2 -31 -16 -7 -33 50 -51 62 -19 4 9 9 39 12 67 8 79 34 249 39 255 3 2 5
-18 5 -45 0 -27 5 -105 11 -174 9 -107 9 -135 -5 -195 -9 -38 -25 -169 -36
-290 -10 -121 -21 -241 -24 -267 l-5 -48 44 0 c52 0 48 -11 70 207 11 103 14
202 11 305 -6 160 -8 181 -21 212 -5 11 -4 53 2 94 9 61 8 81 -4 109 -15 36
-9 59 8 33 6 -10 7 -1 3 27 -3 23 -1 65 6 93 10 41 10 54 0 60 -16 10 -81 -10
-87 -27 -4 -10 -9 -9 -19 4 -18 24 -17 34 1 27 9 -4 15 0 15 7 0 11 2 11 10
-1 8 -12 14 -12 46 4 37 17 39 17 52 -1 10 -13 12 -32 7 -68 -9 -66 -9 -104 0
-195 4 -45 3 -93 -4 -120 -9 -42 -8 -47 18 -75 58 -63 75 -108 45 -119 -14 -5
-15 -4 -4 8 10 13 8 22 -10 52 -18 27 -25 33 -32 22 -8 -10 -9 -9 -5 3 5 16
-9 39 -25 39 -16 0 -8 -20 22 -54 25 -28 30 -41 27 -73 -3 -25 -10 -39 -21
-41 -9 -2 -16 -8 -16 -13 0 -6 7 -6 19 0 17 10 19 5 25 -59 5 -49 11 -70 21
-70 17 0 45 -27 45 -44 0 -7 -11 -19 -25 -26 -34 -18 -59 2 -51 42 4 19 2 27
-7 25 -31 -6 -21 -77 11 -77 12 0 13 -14 7 -83 -4 -45 -12 -114 -19 -154 l-12
-71 45 2 c37 1 46 5 45 19 -1 9 4 17 11 17 7 0 16 6 18 13 4 8 6 7 6 -3 2 -35
39 -51 113 -48 l71 3 13 45 c18 59 18 57 -15 52 -16 -2 -31 0 -34 5 -4 6 99
193 118 211 3 3 -4 -21 -16 -54 -11 -32 -22 -70 -24 -84 -4 -22 -3 -22 9 5 8
17 25 57 37 90 12 33 45 105 73 160 27 55 51 105 52 111 1 6 57 121 123 254
67 133 120 248 118 254 -3 6 -10 10 -16 8 -6 -1 -11 8 -10 20 0 13 3 17 6 11
6 -15 23 -17 23 -3 0 5 -21 21 -47 34 -27 14 -40 25 -30 26 9 0 17 5 17 10 0
6 5 10 10 10 6 0 10 -6 10 -13 0 -8 10 -22 21 -33 34 -31 40 -58 22 -111 -9
-26 -19 -52 -23 -58 -13 -17 -109 -235 -104 -235 3 0 -4 -13 -15 -29 -23 -31
-27 -46 -11 -36 6 3 10 2 10 -3 0 -6 -6 -12 -14 -15 -18 -7 -27 -77 -9 -77 7
0 13 8 13 18 0 32 25 72 48 78 31 8 37 0 34 -44 -5 -63 -11 -72 -45 -72 l-32
-1 30 -14 30 -13 -47 -1 c-27 -1 -48 4 -48 9 0 6 7 10 16 10 8 0 13 4 10 9
-12 19 -54 8 -65 -16 -14 -31 -14 -30 9 -36 10 -3 21 0 22 5 3 7 20 8 46 3 46
-7 52 -27 11 -35 -27 -6 -32 -29 -10 -46 16 -13 6 -35 -13 -28 -14 5 -43 -67
-32 -84 3 -5 -5 -39 -18 -74 -19 -49 -46 -183 -46 -224 0 -2 51 -3 113 -2 80
2 112 7 113 16 4 32 7 35 13 13 4 -17 15 -26 34 -28 15 -2 27 -2 27 -1 1 2 3
21 6 43 12 101 15 125 19 125 2 0 15 -5 29 -11 25 -12 25 -14 19 -83 -5 -67
-4 -72 15 -73 18 -1 21 6 27 63 7 65 12 73 32 53 9 -9 28 -15 55 -18 4 -1 4
-23 1 -51 l-6 -50 50 0 c49 0 51 1 57 31 3 17 6 42 6 55 0 18 6 24 21 24 11 0
17 -5 14 -10 -4 -6 -11 -8 -16 -5 -16 10 -10 -17 7 -30 15 -10 15 -13 0 -27
-18 -18 -22 -33 -6 -23 6 3 10 1 10 -6 0 -35 10 5 15 59 6 60 5 62 -17 62 -18
0 -20 2 -8 10 12 7 8 10 -14 10 -24 0 -27 -2 -16 -15 7 -8 11 -15 9 -16 -2 0
-11 -2 -20 -4 -9 -1 -30 -6 -47 -10 -18 -3 -33 -2 -37 4 -5 10 39 17 68 12 5
-1 7 4 4 11 -4 13 -8 13 -59 -2 -21 -7 -31 -3 -49 16 l-23 24 35 -6 c33 -7 34
-7 16 13 -9 11 -14 23 -10 26 3 4 3 7 0 7 -4 0 -16 -9 -27 -20 -21 -21 -50
-27 -50 -10 0 5 8 6 17 3 17 -7 17 -6 0 20 -9 15 -14 27 -10 27 5 0 3 4 -2 8
-13 9 -65 79 -65 86 0 6 -23 35 -72 90 -31 34 -36 48 -13 40 8 -4 15 -12 15
-19 0 -21 63 -25 82 -5 16 17 16 18 -5 24 -12 3 -34 6 -48 6 -30 0 -39 7 -33
25 4 9 18 11 47 8 24 -4 38 -2 34 3 -5 5 -16 9 -25 10 -44 3 -52 5 -52 13 0 5
18 7 40 4 26 -4 40 -2 40 6 0 6 -16 11 -35 11 -34 0 -35 1 -35 38 0 20 3 47 6
60 6 21 11 23 45 17 37 -6 39 -5 39 19 0 22 -4 26 -30 26 -20 0 -30 -5 -30
-15 0 -8 -4 -15 -8 -15 -11 0 17 161 30 175 5 6 6 -7 2 -35 -13 -77 -11 -85
17 -88 25 -3 25 -3 43 130 26 196 27 202 37 218 8 14 7 -13 -7 -125 -3 -29 -1
-36 6 -25 6 9 10 10 10 3 0 -6 -4 -14 -9 -17 -5 -3 -11 -15 -14 -26 -3 -11 -1
-18 4 -14 5 3 9 0 9 -5 0 -6 -4 -11 -10 -11 -5 0 -10 -15 -9 -32 0 -27 2 -29
8 -13 l8 20 6 -20 c4 -11 5 4 3 33 -2 30 1 52 7 52 6 0 7 19 4 48 -4 30 -3 40
3 27 8 -18 9 -18 9 5 1 14 4 49 8 79 6 52 5 54 -15 49 -27 -7 -38 8 -22 27 10
12 4 19 -33 41 -33 20 -43 32 -39 46 2 10 -1 18 -7 18 -6 0 -11 5 -11 10 0 6
5 9 12 8 6 -2 16 15 21 37 5 22 11 41 12 43 2 2 15 -4 29 -14 15 -9 28 -15 31
-13 2 3 -9 13 -26 24 -16 11 -29 26 -29 34 0 10 8 7 25 -9 14 -13 28 -20 32
-16 4 4 -7 20 -24 36 l-31 29 15 46 c15 44 16 45 34 29 23 -21 16 -32 -8 -14
-10 7 -3 -1 16 -18 22 -20 32 -36 28 -47 -8 -18 -34 -189 -35 -224 -1 -14 10
-36 23 -49 16 -16 23 -32 20 -46 -2 -11 -9 -68 -15 -126 -18 -173 -40 -314
-53 -339 -9 -18 -9 -25 0 -28 7 -3 9 -14 3 -36 -4 -18 -10 -51 -13 -73 -4 -33
-2 -41 11 -40 14 1 92 -89 92 -106 0 -4 -8 -9 -17 -13 -27 -9 -88 -64 -80 -72
4 -3 22 7 40 23 65 60 60 61 106 -10 41 -62 81 -107 81 -91 0 4 -11 22 -23 39
-51 66 -118 169 -113 173 2 2 36 -43 75 -100 40 -58 78 -111 86 -117 8 -7 15
-18 15 -24 0 -6 -7 -2 -15 8 -8 11 -18 16 -22 13 -4 -4 -1 -13 5 -19 7 -7 12
-41 12 -78 0 -40 4 -60 9 -51 7 11 9 11 13 0 10 -28 22 3 22 56 1 57 8 65 65
65 23 0 24 -1 17 -65 -4 -36 -3 -65 2 -65 10 0 10 3 15 82 2 32 7 61 11 65 11
11 26 -19 20 -42 -2 -11 -6 -39 -8 -63 l-3 -42 92 0 93 0 6 33 c3 17 8 77 12
132 3 55 7 116 9 135 1 19 3 52 4 73 0 21 5 36 11 32 5 -3 7 -11 5 -18 -2 -7
-9 -91 -15 -187 -7 -96 -13 -179 -13 -185 -1 -5 15 -11 36 -13 21 -2 37 1 37
7 0 6 6 11 14 11 8 0 38 11 67 25 57 26 69 22 69 -22 0 -16 6 -23 20 -23 23 0
23 -1 -6 143 -18 91 -25 136 -26 157 -1 94 -40 289 -68 341 -6 11 -1 36 15 75
14 33 25 66 25 74 2 35 49 -99 50 -140 0 -25 10 -74 21 -110 11 -36 24 -106
29 -155 5 -50 16 -117 25 -150 22 -85 20 -91 -22 -104 l-38 -11 41 5 c39 5 42
3 48 -23 25 -102 25 -102 56 -102 22 0 30 5 30 18 1 16 1 16 11 0 17 -30 36
-22 31 12 -4 30 -16 39 -27 20 -9 -15 -25 -12 -25 5 0 8 9 19 19 25 13 6 17
17 14 30 -7 27 -21 25 -26 -2 -3 -17 -5 -14 -6 10 0 17 4 32 9 32 6 0 10 4 10
10 0 5 -8 7 -17 3 -16 -6 -16 -4 1 15 22 25 28 27 25 9 -1 -6 1 -19 4 -27 3
-8 13 -47 22 -86 16 -65 19 -71 42 -71 18 0 23 4 18 16 -11 28 -46 163 -43
166 13 9 92 35 108 35 11 0 20 5 20 10 0 13 -14 13 -53 -3 -50 -21 -87 -28
-87 -18 0 6 28 19 62 29 34 11 64 25 66 31 3 10 -16 4 -115 -36 -6 -2 -14 9
-17 26 -18 94 -19 87 14 101 24 10 28 15 19 26 -8 10 -8 14 0 14 6 0 11 5 11
10 0 6 -13 4 -29 -5 -33 -17 -51 -4 -24 17 22 16 23 66 1 97 l-16 23 2 -25 c1
-17 6 -23 16 -20 12 4 13 3 1 -5 -9 -6 -11 -19 -7 -36 3 -14 3 -26 -1 -26 -5
0 -25 71 -47 158 -21 86 -49 189 -61 227 -39 119 -40 132 -11 139 15 3 26 13
26 22 0 13 -5 11 -27 -6 -26 -20 -28 -20 -40 -4 -17 23 -16 24 6 58 18 27 18
31 4 53 -12 18 -13 26 -4 37 9 11 6 18 -16 35 -15 11 -23 21 -17 21 6 0 23 -9
37 -20 14 -11 32 -20 40 -20 27 0 27 -17 1 -29 -14 -6 -23 -7 -19 -1 3 5 0 7
-9 4 -11 -4 -4 -23 33 -87 48 -84 111 -221 156 -340 30 -80 120 -432 130 -504
5 -45 4 -51 -14 -56 -18 -4 -19 -8 -7 -48 8 -24 14 -48 14 -54 0 -5 6 -11 13
-14 8 -2 10 12 6 55 -4 38 -3 50 2 34 5 -14 9 -40 10 -57 1 -33 1 -33 51 -33
28 0 50 4 50 9 0 17 -91 275 -116 329 -13 29 -24 60 -23 70 0 9 6 3 12 -15 12
-31 33 -62 23 -33 -3 8 -8 33 -11 55 -3 22 -12 45 -21 52 -9 6 -11 14 -5 17 6
4 6 16 0 34 -5 15 -28 85 -50 157 -23 71 -56 162 -75 202 -18 41 -29 71 -24
68 6 -4 10 -1 10 4 0 6 -4 11 -10 11 -5 0 -10 9 -10 20 0 11 -7 20 -15 20 -18
0 -34 29 -37 70 -5 64 -116 128 -268 155 -40 7 -187 74 -202 92 -12 15 -4 17
20 3 9 -5 58 -21 107 -36 50 -14 106 -35 125 -47 l35 -21 -18 21 c-10 12 -33
27 -50 34 -18 7 -59 25 -92 40 -121 55 -141 61 -212 65 -40 3 -73 3 -73 0 0
-2 17 -10 38 -16 75 -23 91 -33 115 -69 14 -20 50 -66 81 -101 31 -36 56 -67
56 -70 0 -3 -17 -12 -37 -19 -21 -8 -52 -25 -69 -37 l-31 -24 -69 98 c-39 53
-82 115 -97 137 -14 22 -48 64 -74 94 -28 31 -39 49 -27 43 12 -7 34 -8 50 -4
38 9 150 2 172 -12 7 -4 12 -4 12 0 0 3 8 1 18 -7 16 -12 16 -12 1 5 -28 31
-261 64 -243 34 4 -5 -3 -5 -15 1 -12 6 -30 16 -42 22 -31 16 -32 7 0 -32 15
-19 36 -50 46 -69 10 -19 32 -53 50 -75 34 -42 55 -78 55 -92 0 -4 -10 3 -21
17 l-20 25 6 -24 c5 -16 4 -21 -4 -17 -6 4 -11 3 -11 -3 0 -17 19 -22 41 -11
23 13 16 20 100 -100 75 -108 86 -125 69 -115 -8 6 -28 10 -45 10 -25 0 -38
12 -92 85 -90 122 -98 137 -78 156 22 22 19 37 -14 68 -38 36 -47 14 -13 -31
13 -18 20 -33 16 -33 -13 1 -79 89 -105 140 -12 25 -33 57 -47 72 -14 16 -22
33 -19 42 4 9 3 16 -2 16 -4 0 -6 12 -3 26 5 26 6 26 66 22 44 -4 76 -14 115
-37 29 -18 56 -29 59 -26 3 3 3 7 1 9 -10 9 -150 76 -212 101 -70 29 -108 68
-152 155 -10 19 -37 61 -61 93 -49 63 -52 72 -26 63 15 -5 14 -4 -2 9 -10 8
-24 16 -30 18 -7 2 -6 10 4 22 12 15 12 17 1 10 -10 -5 -12 -4 -7 3 4 7 14 12
22 12 11 0 12 4 5 18 -13 24 12 57 36 48 14 -5 13 -2 -4 13 -26 22 -25 70 2
86 88 52 113 90 122 184 3 31 14 83 25 116 11 33 21 85 23 115 1 30 12 113 24
185 18 109 20 140 11 198 -22 141 -114 270 -261 364 -24 15 -60 40 -79 55 -62
47 -163 88 -216 88 -27 0 -83 9 -124 20 -41 11 -75 19 -75 19 0 0 -22 -9 -50
-20z m70 -9 c3 -5 1 -10 -4 -10 -6 0 -11 5 -11 10 0 6 2 10 4 10 3 0 8 -4 11
-10z m-181 -516 c3 -8 2 -12 -4 -9 -6 3 -10 10 -10 16 0 14 7 11 14 -7z m-26
-15 c12 -19 11 -19 -8 -9 -11 6 -20 15 -20 20 0 17 15 11 28 -11z m-31 -24
c20 -14 22 -48 3 -60 -12 -7 -41 25 -34 37 4 6 9 5 15 -3 4 -7 12 -10 16 -5 4
4 -3 16 -16 27 -27 22 -15 26 16 4z m73 -62 c11 -21 18 -29 15 -17 -4 15 1 24
19 32 28 13 42 2 32 -25 -5 -13 -4 -14 8 -4 8 7 20 10 25 6 7 -3 8 0 5 9 -3 9
-1 16 5 16 10 0 15 -22 14 -58 -1 -10 2 -10 13 -1 20 17 19 -10 -2 -41 -11
-16 -5 -13 15 9 l33 34 25 -27 c14 -15 31 -25 39 -22 9 3 11 0 7 -11 -5 -11
-3 -14 6 -8 9 5 11 18 7 39 l-6 31 16 -23 c13 -19 14 -29 5 -48 -6 -13 -7 -24
-2 -24 5 0 12 6 15 13 4 6 4 2 2 -10 -2 -12 2 -24 9 -27 8 -3 15 2 17 11 2 13
6 12 21 -5 18 -19 17 -19 -37 -19 -35 0 -65 -7 -81 -17 -14 -9 -29 -14 -34
-11 -14 8 -23 -26 -11 -40 8 -9 7 -15 -2 -18 -29 -12 31 -6 87 9 145 37 144
37 179 20 19 -9 40 -16 48 -17 10 0 10 -2 1 -6 -24 -9 -13 -23 13 -17 19 5 25
4 20 -5 -4 -6 -1 -11 8 -11 8 0 20 -8 25 -17 10 -17 10 -17 11 -1 0 11 5 15
14 12 9 -3 12 -12 9 -21 -4 -11 -2 -14 5 -9 14 8 13 12 16 -119 2 -71 -2 -105
-11 -116 -15 -18 -19 -55 -9 -86 4 -12 2 -24 -3 -28 -7 -3 -8 0 -5 9 3 9 2 16
-3 16 -12 0 -36 -67 -29 -79 3 -5 -1 -11 -8 -14 -15 -6 -14 -35 3 -79 9 -21
10 -21 10 10 1 17 5 32 10 32 10 0 9 -85 -2 -96 -4 -4 -7 0 -7 9 0 32 -16 17
-29 -28 -7 -25 -16 -43 -19 -41 -3 3 -11 1 -19 -6 -9 -7 -8 0 4 23 10 19 21
36 26 37 4 2 7 11 7 20 0 14 -2 15 -10 2 -5 -8 -12 -12 -15 -8 -4 3 3 15 15
26 12 11 17 23 12 26 -6 3 -12 -1 -16 -9 -6 -17 -36 -21 -36 -4 0 5 -4 7 -10
4 -14 -8 -13 -26 1 -22 6 1 14 -4 17 -12 3 -10 0 -12 -11 -8 -9 3 -17 2 -19
-3 -2 -5 -14 -11 -28 -12 -25 -3 -50 -36 -50 -65 0 -13 -2 -13 -17 -2 -17 13
-17 13 0 -13 21 -34 21 -37 0 -33 -10 1 -17 9 -15 17 1 9 -5 22 -15 29 -14 12
-16 12 -11 -1 7 -18 -26 -63 -37 -52 -4 4 -5 -2 -2 -13 18 -67 17 -72 -6 -71
-12 1 -21 -4 -20 -10 1 -7 -6 -10 -17 -7 -12 3 -20 0 -20 -7 0 -10 -3 -10 -15
0 -8 7 -15 9 -15 4 -1 -25 -18 -36 -39 -25 -11 7 -21 8 -21 2 0 -5 -7 -11 -14
-14 -10 -4 -13 -1 -10 7 7 18 -50 16 -68 -2 -15 -15 -38 -16 -38 -1 0 5 5 7
11 3 7 -4 10 -1 7 7 -3 8 -12 12 -19 10 -8 -2 -23 -6 -33 -9 -16 -4 -18 -2
-12 13 8 23 -13 38 -32 23 -16 -14 -35 8 -28 34 2 11 -1 15 -10 11 -17 -6 -18
9 -2 25 17 17 2 15 -27 -4 -24 -16 -25 -15 -55 32 -27 43 -28 49 -15 64 12 13
13 23 4 48 -10 29 -42 47 -36 21 1 -6 -4 -14 -10 -16 -8 -3 -14 5 -15 19 -2
37 -3 42 -16 65 -7 12 -11 32 -11 45 1 13 -2 34 -6 48 -4 14 -7 32 -7 40 0 8
-5 35 -10 60 -21 94 -2 449 22 411 4 -7 15 -2 29 13 13 14 20 29 16 35 -10 17
11 13 26 -6 12 -14 12 -17 0 -21 -23 -8 -61 -49 -61 -67 0 -17 11 -20 26 -5
19 19 108 24 140 8 16 -8 50 -21 76 -28 41 -11 49 -10 63 3 19 20 19 31 0 24
-8 -4 -22 4 -32 18 -10 13 -31 26 -48 29 -16 2 -32 5 -35 7 -8 4 -24 7 -42 8
-17 1 -19 16 -4 40 5 8 3 16 -5 22 -11 7 -10 9 5 9 19 0 19 0 0 21 -15 16 -15
20 -4 18 26 -4 50 12 50 35 0 16 3 18 9 7 7 -10 14 -6 32 18 12 17 26 31 31
31 4 0 17 -17 28 -37z m7 15 c-3 -8 -6 -5 -6 6 -1 11 2 17 5 13 3 -3 4 -12 1
-19z m-213 -104 c10 -26 7 -56 -5 -49 -13 9 -28 47 -22 58 7 12 21 8 27 -9z
m746 -125 c0 -6 -4 -7 -10 -4 -5 3 -10 11 -10 16 0 6 5 7 10 4 6 -3 10 -11 10
-16z m97 -181 c-3 -8 -6 -5 -6 6 -1 11 2 17 5 13 3 -3 4 -12 1 -19z m163 -68
c0 -38 -17 -82 -37 -97 -14 -11 -14 -13 -2 -13 8 0 20 5 27 12 17 17 15 4 -8
-46 -19 -39 -52 -66 -83 -66 -8 0 -12 16 -11 43 1 46 9 67 25 67 5 0 23 10 39
22 26 19 30 28 30 70 0 30 4 47 10 43 6 -3 10 -19 10 -35z m-60 -31 c0 -6 -10
-23 -22 -37 -15 -20 -19 -22 -13 -7 4 11 10 28 12 38 6 19 23 24 23 6z m-97
-79 c-3 -12 -8 -19 -11 -16 -5 6 5 36 12 36 2 0 2 -9 -1 -20z m-16 -45 c0 -8
-4 -12 -9 -9 -4 3 -8 9 -8 15 0 5 4 9 8 9 5 0 9 -7 9 -15z m-47 -85 c0 -5 -5
-10 -11 -10 -5 0 -7 5 -4 10 3 6 8 10 11 10 2 0 4 -4 4 -10z m20 -50 c0 -5 -5
-10 -11 -10 -5 0 -7 5 -4 10 3 6 8 10 11 10 2 0 4 -4 4 -10z m-110 -155 c0 -5
-5 -3 -10 5 -9 13 -11 13 -20 0 -5 -8 -10 -10 -10 -4 0 5 5 15 12 22 9 9 14 9
20 -1 4 -6 8 -16 8 -22z m-710 3 c0 -13 -23 -5 -28 10 -2 7 2 10 12 6 9 -3 16
-11 16 -16z m680 -67 c-11 -22 -47 -33 -57 -19 -3 7 -1 8 5 4 6 -3 19 4 29 18
20 27 38 25 23 -3z m27 -13 c-3 -8 -6 -5 -6 6 -1 11 2 17 5 13 3 -3 4 -12 1
-19z m103 -3 c0 -8 -4 -15 -10 -15 -5 0 -7 7 -4 15 4 8 8 15 10 15 2 0 4 -7 4
-15z m-182 -32 c11 -11 10 -14 -5 -20 -10 -3 -21 -8 -25 -10 -4 -2 -5 3 -2 11
3 9 1 16 -5 16 -6 0 -11 4 -11 8 0 14 33 10 48 -5z m292 -155 c21 -29 24 -30
31 -12 5 14 7 11 6 -14 0 -18 -4 -35 -9 -38 -4 -3 -8 1 -8 8 0 8 -13 28 -30
46 -31 35 -35 42 -22 42 5 0 19 -14 32 -32z m96 -36 c-2 -48 -23 -35 -24 14
-1 41 0 45 12 29 7 -10 13 -29 12 -43z m-102 -13 c18 -26 25 -47 21 -60 -7
-21 -7 -21 -22 0 -8 12 -11 25 -8 31 8 12 -12 50 -27 50 -7 0 -6 -5 2 -15 11
-13 10 -14 -6 -8 -13 5 -8 -7 19 -44 40 -55 43 -66 24 -101 l-13 -23 -14 28
c-8 15 -24 39 -36 53 l-22 25 20 53 c10 28 23 52 27 52 5 0 20 -18 35 -41z
m131 1 c3 -5 1 -10 -4 -10 -6 0 -11 5 -11 10 0 6 2 10 4 10 3 0 8 -4 11 -10z
m-3 -25 c6 -6 -16 -132 -24 -141 -4 -3 -9 -1 -13 5 -3 6 -1 11 6 11 7 0 -4 15
-24 34 -20 18 -37 40 -37 47 0 11 2 11 10 -1 5 -8 10 -11 10 -7 0 4 11 -5 25
-20 17 -20 24 -24 25 -12 0 9 -9 24 -20 34 -11 10 -20 25 -20 33 0 12 7 9 26
-9 l27 -24 -7 28 c-6 24 2 35 16 22z m-171 -132 c45 -62 54 -77 41 -69 -7 4
-17 -15 -27 -51 -29 -106 -27 -105 -69 -40 -21 32 -35 61 -33 64 3 3 15 -13
26 -34 20 -40 51 -73 51 -55 0 5 -7 15 -15 22 -8 7 -15 17 -15 23 0 6 6 3 13
-7 11 -16 15 -11 31 39 13 41 15 60 7 68 -8 8 -11 6 -11 -5 0 -9 -4 -20 -10
-23 -6 -4 -6 3 0 21 9 22 6 32 -15 60 -14 19 -22 34 -17 34 5 0 24 -21 43 -47z
m-898 5 c-17 -23 -64 -169 -60 -186 3 -13 6 -12 15 8 10 24 11 24 11 3 1 -13
-2 -23 -7 -23 -4 0 -12 -10 -17 -22 -32 -71 -41 13 -10 90 15 37 16 46 4 54
-11 8 -11 9 2 5 11 -4 22 9 37 46 12 28 25 48 28 44 4 -4 2 -12 -3 -19z m1100
5 c-7 -2 -19 -2 -25 0 -7 3 -2 5 12 5 14 0 19 -2 13 -5z m-262 -54 c-6 -17 -8
-35 -5 -40 11 -19 -3 -8 -32 23 -16 18 -20 25 -8 15 28 -23 31 -22 38 15 3 17
9 28 12 25 4 -3 1 -20 -5 -38z m236 -6 c-3 -10 -5 -2 -5 17 0 19 2 27 5 18 2
-10 2 -26 0 -35z m-327 2 c-7 -8 -10 -23 -7 -34 2 -10 1 -25 -4 -32 -4 -7 -3
-19 3 -26 6 -8 7 -35 3 -75 -7 -56 -9 -60 -22 -43 -8 12 -10 21 -3 23 13 5 13
89 0 97 -7 4 -7 12 0 24 5 10 7 21 3 24 -6 7 23 57 33 57 4 0 1 -7 -6 -15z
m330 -39 c0 -3 -4 -8 -10 -11 -5 -3 -10 -1 -10 4 0 6 5 11 10 11 6 0 10 -2 10
-4z m-1202 -33 c0 -27 -56 -118 -66 -108 -3 2 0 10 5 17 6 7 13 27 17 43 7 28
32 75 40 75 2 0 4 -12 4 -27z m1500 -91 c21 -31 64 -93 96 -136 31 -44 61 -86
66 -95 5 -9 12 -13 16 -9 4 4 1 14 -6 23 -7 9 -11 17 -9 18 2 1 18 12 35 24
17 12 47 28 67 37 35 14 36 14 60 -17 21 -28 37 -56 69 -120 5 -11 7 -22 4
-25 -3 -3 -6 0 -6 6 0 7 -5 12 -10 12 -6 0 -9 -3 -8 -7 1 -5 -4 -27 -11 -51
-6 -23 -9 -46 -6 -51 3 -5 0 -11 -5 -13 -6 -2 -12 -10 -14 -18 -1 -8 -10 -33
-20 -55 -17 -40 -23 -56 -33 -105 -10 -44 13 -9 35 55 11 33 41 107 66 164 35
79 43 106 34 112 -8 5 -5 8 10 6 24 -1 27 -8 12 -23 -5 -5 -25 -59 -43 -119
-30 -98 -64 -185 -130 -337 -25 -58 -42 -63 -33 -11 3 21 6 46 6 55 0 10 6 15
13 13 6 -3 18 4 25 15 10 17 10 21 -3 26 -19 8 -14 40 15 119 10 28 29 86 41
130 12 44 26 85 31 91 12 17 0 41 -25 48 -31 8 -34 -2 -3 -13 14 -6 26 -12 26
-13 0 -8 -154 2 -163 11 -5 5 -15 7 -22 5 -12 -5 -108 120 -181 236 -17 27
-45 65 -62 85 -18 19 -32 38 -32 41 0 12 60 -59 98 -114z m-304 83 c3 -8 1
-15 -4 -15 -6 0 -10 7 -10 15 0 8 2 15 4 15 2 0 6 -7 10 -15z m76 -47 c0 -19
17 -51 50 -95 27 -36 47 -70 44 -75 -4 -6 -2 -13 3 -17 5 -3 30 -34 56 -67 28
-38 57 -64 73 -68 21 -6 25 -11 20 -29 -3 -13 2 -29 12 -41 16 -20 16 -20 0
-7 -20 15 -18 21 -23 -76 -3 -48 7 -71 18 -40 2 6 4 -3 4 -21 0 -17 -4 -32 -9
-32 -5 0 -7 4 -3 9 3 5 1 12 -5 16 -6 4 -10 -6 -10 -23 0 -21 6 -31 20 -35 18
-5 20 0 20 51 0 32 3 90 7 131 4 52 2 75 -7 81 -8 5 -5 9 10 13 22 6 22 5 15
-86 -4 -51 -8 -159 -7 -240 l0 -149 -24 5 c-14 2 -27 0 -30 -4 -3 -5 8 -9 25
-9 29 0 30 -1 25 -45 -4 -44 -3 -45 21 -39 19 5 25 2 25 -11 0 -14 -3 -15 -15
-5 -18 15 -20 -1 -3 -18 6 -6 9 -14 6 -18 -4 -3 -17 10 -30 30 -13 19 -29 38
-36 41 -15 6 -11 -3 33 -65 26 -37 31 -52 27 -82 -2 -21 -6 -38 -9 -38 -9 0
-29 25 -71 87 -32 46 -47 61 -60 57 -13 -5 -14 -4 -3 4 10 7 11 14 2 31 -7 11
-16 21 -21 21 -6 0 -8 15 -6 33 3 17 5 47 5 65 1 19 5 31 11 27 6 -3 10 4 10
17 0 18 -2 20 -10 8 -7 -10 -9 29 -9 120 1 163 10 249 29 260 8 5 11 12 7 16
-3 4 -15 -4 -26 -17 -20 -24 -20 -24 -52 -6 -38 21 -51 15 -16 -8 l26 -16 0
-169 c1 -161 1 -168 -18 -163 -23 6 -39 -16 -20 -28 8 -5 15 -4 17 1 2 6 7 8
12 5 4 -3 4 -22 -1 -42 -4 -21 -8 -39 -9 -40 0 -2 0 -14 0 -27 0 -21 -6 -25
-32 -28 l-33 -3 23 -22 c12 -13 22 -26 22 -29 0 -3 31 -53 70 -110 68 -103 69
-104 42 -104 -15 0 -37 -3 -48 -6 -18 -5 -32 8 -81 73 -83 109 -81 103 -48
129 16 13 27 26 24 29 -3 3 -18 -6 -32 -20 -17 -18 -27 -22 -32 -14 -4 6 -3
14 2 18 40 27 56 41 52 46 -3 3 -19 -6 -35 -20 -16 -14 -31 -25 -34 -25 -3 0
-16 18 -30 40 -14 22 -28 40 -32 40 -13 0 -9 -12 9 -32 9 -10 14 -21 10 -24
-3 -3 -14 7 -23 23 -10 15 -22 30 -26 33 -8 7 15 119 30 145 6 11 12 14 12 7
0 -7 5 -10 10 -7 6 3 10 14 10 23 0 15 -2 15 -10 2 -5 -8 -10 -11 -10 -6 0 5
-12 -1 -26 -15 l-26 -24 20 40 c16 31 24 82 37 223 18 206 23 242 37 242 5 0
6 10 3 21 -5 14 -3 19 3 15 6 -3 14 -21 17 -39 9 -42 16 -52 25 -37 5 8 9 7
13 -5 4 -9 3 -14 -2 -11 -12 8 -19 -50 -30 -242 -9 -153 -19 -201 -41 -187 -5
3 -11 1 -15 -5 -4 -6 -11 -8 -16 -5 -5 4 -9 1 -9 -4 0 -6 16 -11 36 -11 19 0
33 -4 30 -9 -3 -4 -8 -33 -11 -63 l-6 -56 43 -4 c24 -3 44 -4 46 -3 1 1 5 31
8 66 4 35 10 68 15 73 13 14 11 28 -3 20 -8 -5 -9 -2 -3 12 4 10 7 101 6 200
l-1 182 33 33 c17 18 25 28 16 21 -9 -6 -19 -9 -22 -5 -4 3 -7 2 -7 -4 0 -6
-7 -13 -15 -17 -21 -8 -65 62 -71 111 -3 21 -7 65 -9 98 -3 33 -7 74 -10 90
-4 28 -4 29 10 11 8 -11 15 -33 15 -48z m-1136 -13 c-4 -8 -8 -15 -10 -15 -2
0 -4 7 -4 15 0 8 4 15 10 15 5 0 7 -7 4 -15z m-60 -70 c-10 -8 -23 -14 -29
-14 -5 -1 1 8 15 19 14 10 27 17 29 14 3 -2 -4 -11 -15 -19z m1875 0 c9 -2 20
-4 24 -4 5 -1 6 -5 3 -10 -4 -5 6 -19 21 -30 16 -11 23 -21 17 -21 -6 0 -28
14 -49 30 -21 17 -44 30 -51 30 -7 0 -16 5 -20 11 -4 8 1 9 16 4 12 -4 30 -9
39 -10z m-975 -17 c-3 -13 -10 -30 -15 -38 -6 -12 -8 -10 -9 8 0 19 -4 21 -25
16 -15 -4 -25 -2 -25 5 0 6 3 11 8 12 22 2 45 8 50 13 13 14 23 4 16 -16z
m-1058 -30 c-14 -32 -42 -55 -53 -44 -3 2 4 7 14 10 11 3 25 22 32 42 7 19 15
34 17 31 2 -2 -2 -20 -10 -39z m1259 12 c10 -11 16 -20 13 -20 -3 0 -13 9 -23
20 -10 11 -16 20 -13 20 3 0 13 -9 23 -20z m-195 -40 c-7 -17 -15 -28 -18 -26
-2 3 1 19 8 36 7 17 15 28 18 26 2 -3 -1 -19 -8 -36z m-1111 12 c-7 -3 -20
-10 -28 -16 -12 -9 -12 -8 -1 11 8 13 20 19 29 15 13 -5 13 -6 0 -10z m1340
-21 c-6 -18 -13 -30 -15 -28 -2 2 1 18 7 36 6 18 13 30 15 28 2 -2 -1 -18 -7
-36z m-1098 -17 c-9 -28 -9 -29 -10 -3 -1 14 2 29 6 32 11 12 13 2 4 -29z
m-273 -21 c-22 -27 -27 -45 -32 -135 -2 -46 -2 -72 1 -58 8 40 19 44 15 5 -3
-21 -10 -35 -18 -35 -10 0 -14 -13 -14 -40 0 -22 0 -43 -1 -47 0 -5 6 -9 14
-11 17 -3 30 70 14 77 -5 2 -3 7 4 11 8 5 13 36 15 87 2 44 8 92 14 107 5 15
10 31 10 36 0 5 4 11 9 14 5 4 5 -10 0 -32 -4 -20 -11 -73 -14 -117 -4 -44
-11 -105 -15 -135 -5 -30 -12 -80 -15 -110 -10 -97 -16 -120 -34 -121 -10 0
-11 -2 -3 -6 6 -2 12 -15 12 -28 0 -21 -5 -23 -51 -27 -28 -1 -52 -1 -53 2 -4
7 12 189 18 215 2 11 10 34 16 50 7 17 14 77 17 135 l5 105 41 37 c43 39 72
51 45 21z m1229 -5 c-3 -8 -6 -5 -6 6 -1 11 2 17 5 13 3 -3 4 -12 1 -19z m925
0 c-7 -7 -12 -8 -12 -2 0 14 12 26 19 19 2 -3 -1 -11 -7 -17z m-1885 -45 c-3
-10 -5 -4 -5 12 0 17 2 24 5 18 2 -7 2 -21 0 -30z m737 -110 c-37 -70 -71
-132 -77 -138 -5 -5 24 55 64 135 41 80 75 142 77 138 2 -4 -27 -65 -64 -135z
m1126 117 c-6 -11 -13 -20 -16 -20 -2 0 0 9 6 20 6 11 13 20 16 20 2 0 0 -9
-6 -20z m-2340 -10 c8 -5 11 -10 5 -10 -5 0 -17 5 -25 10 -8 5 -10 10 -5 10 6
0 17 -5 25 -10z m97 -142 c-2 -24 -4 -7 -4 37 0 44 2 63 4 43 2 -21 2 -57 0
-80z m1813 98 c0 -3 -4 -8 -10 -11 -5 -3 -10 -1 -10 4 0 6 5 11 10 11 6 0 10
-2 10 -4z m468 -21 c-3 -3 -9 2 -12 12 -6 14 -5 15 5 6 7 -7 10 -15 7 -18z
m-217 -21 c-5 -16 -10 -21 -10 -12 -1 18 10 51 15 45 2 -1 -1 -16 -5 -33z
m207 5 c11 -18 11 -23 -5 -34 -10 -7 -15 -17 -11 -21 4 -4 14 -2 22 5 11 10
17 3 30 -35 20 -59 20 -74 1 -74 -12 0 -14 -7 -9 -27 9 -37 36 -105 29 -73
-24 108 -7 64 29 -75 44 -168 48 -188 65 -315 7 -54 5 -67 -8 -77 -13 -10 -17
-8 -23 10 -10 35 -9 97 2 97 6 0 10 11 10 25 0 14 -4 25 -10 25 -5 0 -10 -10
-10 -22 0 -61 -23 37 -40 171 -10 73 -80 327 -101 365 -9 15 -8 21 5 28 9 5
16 14 16 20 0 7 -5 6 -15 -2 -16 -14 -18 -10 -9 14 8 21 17 20 32 -5z m-1375
-6 c-7 -2 -19 -2 -25 0 -7 3 -2 5 12 5 14 0 19 -2 13 -5z m414 -25 c-3 -8 -6
-5 -6 6 -1 11 2 17 5 13 3 -3 4 -12 1 -19z m-130 -55 c-4 -38 -14 -94 -24
-125 -15 -47 -21 -56 -33 -47 -12 8 -12 12 -2 16 10 4 9 8 -5 19 -17 13 -17
14 4 20 13 3 21 10 18 14 -3 4 2 20 9 36 8 16 17 53 21 82 10 76 19 64 12 -15z
m1030 45 c-3 -8 -6 -5 -6 6 -1 11 2 17 5 13 3 -3 4 -12 1 -19z m-1347 8 c0 -3
-4 -8 -10 -11 -5 -3 -10 -1 -10 4 0 6 5 11 10 11 6 0 10 -2 10 -4z m817 -73
c-2 -16 -4 -3 -4 27 0 30 2 43 4 28 2 -16 2 -40 0 -55z m-851 52 c9 -8 11 -15
6 -15 -5 0 -15 7 -22 15 -7 8 -9 15 -6 15 4 0 14 -7 22 -15z m1364 -42 c-11
-17 -11 -17 -6 0 3 10 6 24 7 30 0 9 2 9 5 0 3 -7 0 -20 -6 -30z m-390 -39
c-8 -27 -8 -26 -9 16 0 32 2 40 9 29 5 -9 6 -28 0 -45z m-363 -1 c-3 -10 -5
-2 -5 17 0 19 2 27 5 18 2 -10 2 -26 0 -35z m-950 5 c-3 -8 -6 -5 -6 6 -1 11
2 17 5 13 3 -3 4 -12 1 -19z m323 18 c0 -2 -8 -10 -17 -17 -16 -13 -17 -12 -4
4 13 16 21 21 21 13z m617 -93 c-3 -10 -5 -4 -5 12 0 17 2 24 5 18 2 -7 2 -21
0 -30z m-432 -60 c-21 -43 -41 -89 -46 -102 -5 -13 -12 -21 -15 -18 -3 3 16
51 42 106 26 56 49 99 51 97 3 -2 -12 -39 -32 -83z m-226 66 c-17 -11 -39 -12
-39 -1 0 4 12 8 27 9 19 1 22 -1 12 -8z m-49 -18 c0 -6 -5 -13 -12 -17 -6 -4
-8 -3 -4 4 3 5 0 13 -6 15 -8 3 -6 6 5 6 9 1 17 -3 17 -8z m60 -19 c0 -13 -12
-22 -22 -16 -10 6 -1 24 13 24 5 0 9 -4 9 -8z m642 -22 c-2 -16 -6 -30 -8 -30
-2 0 -4 14 -4 30 0 17 4 30 8 30 5 0 7 -13 4 -30z m-909 -27 c5 -26 4 -26 -9
-8 -16 22 -18 35 -5 35 5 0 11 -12 14 -27z m1616 -53 c0 -10 -3 -8 -9 5 -12
27 -12 43 0 25 5 -8 9 -22 9 -30z m-452 -2 c-3 -8 -6 -5 -6 6 -1 11 2 17 5 13
3 -3 4 -12 1 -19z m442 -59 c45 -175 57 -282 32 -301 -14 -12 -15 -11 -2 5 14
18 5 22 -18 8 -7 -5 -11 -13 -7 -19 3 -6 2 -13 -4 -17 -5 -3 -10 3 -10 15 0
13 -4 19 -11 14 -7 -4 -10 -1 -7 7 3 8 15 15 27 17 31 5 34 21 21 104 -7 40
-13 82 -15 93 -1 11 -10 44 -19 74 -16 54 -21 89 -11 79 3 -3 14 -38 24 -79z
m-1535 56 c-4 -8 -10 -12 -15 -9 -11 6 -2 24 11 24 5 0 7 -7 4 -15z m1553 -37
c-3 -8 -6 -5 -6 6 -1 11 2 17 5 13 3 -3 4 -12 1 -19z m-1660 -10 c-3 -8 -6 -5
-6 6 -1 11 2 17 5 13 3 -3 4 -12 1 -19z m933 15 c0 -5 -5 -15 -10 -23 -8 -12
-10 -11 -10 8 0 12 5 22 10 22 6 0 10 -3 10 -7z m670 -18 c-13 -35 -40 -85
-45 -85 -4 0 20 61 36 93 14 26 20 21 9 -8z m-411 -39 c-9 -8 -10 -7 -5 7 3
10 7 26 7 35 1 9 4 6 6 -7 3 -13 -1 -28 -8 -35z m-1134 -6 c-3 -6 0 -10 7 -10
9 0 10 -2 1 -8 -13 -8 -15 -80 -2 -88 5 -3 9 -15 9 -27 -1 -18 -4 -15 -15 12
-17 39 -21 177 -4 148 5 -9 7 -22 4 -27z m65 30 c0 -5 -2 -10 -4 -10 -3 0 -8
5 -11 10 -3 6 -1 10 4 10 6 0 11 -4 11 -10z m405 0 c3 -5 1 -10 -4 -10 -6 0
-11 5 -11 10 0 6 2 10 4 10 3 0 8 -4 11 -10z m1163 -85 c0 -11 -6 3 -14 30 -7
28 -13 55 -13 60 2 17 27 -69 27 -90z m-1675 38 c5 -44 2 -63 -7 -52 -7 9 -13
99 -6 99 4 0 10 -21 13 -47z m1594 25 c-2 -7 6 -34 20 -60 13 -27 20 -48 16
-48 -14 1 -53 89 -47 105 7 18 18 21 11 3z m-1194 -53 c-15 -30 -29 -53 -31
-51 -4 5 46 106 53 106 3 0 -7 -25 -22 -55z m1514 23 c-3 -8 -6 -5 -6 6 -1 11
2 17 5 13 3 -3 4 -12 1 -19z m-1777 2 c0 -5 -7 -7 -15 -4 -8 4 -15 8 -15 10 0
2 7 4 15 4 8 0 15 -4 15 -10z m1037 -12 c-3 -8 -6 -5 -6 6 -1 11 2 17 5 13 3
-3 4 -12 1 -19z m-1670 6 c-3 -3 -12 -4 -19 -1 -8 3 -5 6 6 6 11 1 17 -2 13
-5z m80 0 c-3 -3 -12 -4 -19 -1 -8 3 -5 6 6 6 11 1 17 -2 13 -5z m-59 -55 c-3
-8 -7 -3 -11 10 -4 17 -3 21 5 13 5 -5 8 -16 6 -23z m1272 21 c0 -5 -2 -10 -4
-10 -3 0 -8 5 -11 10 -3 6 -1 10 4 10 6 0 11 -4 11 -10z m380 1 c0 -6 -4 -13
-10 -16 -5 -3 -10 1 -10 9 0 9 5 16 10 16 6 0 10 -4 10 -9z m-560 -5 c0 -3 -4
-8 -10 -11 -5 -3 -10 -1 -10 4 0 6 5 11 10 11 6 0 10 -2 10 -4z m40 -6 c0 -5
-5 -10 -11 -10 -5 0 -7 5 -4 10 3 6 8 10 11 10 2 0 4 -4 4 -10z m35 0 c3 -5
-1 -10 -10 -10 -9 0 -13 5 -10 10 3 6 8 10 10 10 2 0 7 -4 10 -10z m5 -30 c0
-5 -4 -10 -10 -10 -5 0 -10 5 -10 10 0 6 5 10 10 10 6 0 10 -4 10 -10z m-359
-27 c-12 -20 -14 -14 -5 12 4 9 9 14 11 11 3 -2 0 -13 -6 -23z m1633 12 c-7
-16 -24 -21 -24 -6 0 8 7 13 27 20 1 1 0 -6 -3 -14z m-1282 -49 c1 -41 14 -53
110 -100 32 -16 55 -33 52 -38 -4 -7 -9 -7 -13 0 -3 5 -33 23 -66 40 -89 45
-103 60 -97 105 5 46 12 43 14 -7z m48 14 c-32 -24 -40 -16 -9 9 13 11 26 17
29 14 3 -2 -6 -13 -20 -23z m-1390 1 c0 -4 11 -20 25 -35 28 -31 14 -33 -35
-6 -35 20 -35 20 -5 14 l30 -7 -19 22 c-11 11 -14 21 -8 21 7 0 12 -4 12 -9z
m1292 -23 c-8 -8 -9 -4 -5 13 4 13 8 18 11 10 2 -7 -1 -18 -6 -23z m993 -24
c-16 -32 -19 -24 -9 26 5 24 9 29 15 17 6 -9 3 -26 -6 -43z m-1575 15 c0 -6
-4 -7 -10 -4 -6 4 -10 -7 -10 -24 0 -17 -5 -31 -11 -31 -12 0 -9 49 4 67 10
14 27 8 27 -8z m710 -24 c-7 -8 -17 -15 -23 -15 -6 0 -2 7 9 15 25 19 30 19
14 0z m-780 -172 c-7 -56 -16 -101 -20 -98 -3 2 -1 37 6 77 7 40 14 98 15 128
1 36 4 44 7 25 2 -16 -2 -76 -8 -132z m85 127 c3 -5 1 -10 -4 -10 -6 0 -11 5
-11 10 0 6 2 10 4 10 3 0 8 -4 11 -10z m1639 -80 l6 -45 -15 50 c-16 56 -19
77 -6 55 5 -8 11 -35 15 -60z m-389 51 c-6 -5 -23 -12 -40 -16 l-30 -6 30 15
c35 17 53 20 40 7z m385 -127 c0 -1 -8 -4 -17 -7 -10 -2 -42 -14 -70 -26 -29
-11 -53 -16 -53 -11 0 6 4 10 10 10 18 0 110 44 110 52 0 12 -3 11 -66 -17
l-57 -25 6 37 c8 59 25 93 45 93 10 0 27 6 37 14 18 13 20 10 37 -53 10 -36
18 -67 18 -67z m-1650 103 c0 -19 -27 -53 -36 -45 -9 10 12 58 26 58 5 0 10
-6 10 -13z m60 -2 c-7 -8 -17 -15 -22 -15 -6 0 -5 7 2 15 7 8 17 15 22 15 6 0
5 -7 -2 -15z m596 -32 c-3 -27 -10 -59 -16 -73 -10 -23 -10 -23 -5 9 3 18 5
51 5 72 0 22 5 39 10 39 7 0 9 -19 6 -47z m1251 5 c-3 -8 -6 -5 -6 6 -1 11 2
17 5 13 3 -3 4 -12 1 -19z m-1872 -28 c-3 -5 -11 -10 -16 -10 -6 0 -7 5 -4 10
3 6 11 10 16 10 6 0 7 -4 4 -10z m1894 -50 c1 -13 0 -13 -9 0 -5 8 -9 24 -9
35 l0 20 9 -20 c5 -11 9 -27 9 -35z m-832 -27 c-2 -16 -4 -5 -4 22 0 28 2 40
4 28 2 -13 2 -35 0 -50z m-1072 37 c-3 -5 -12 -10 -18 -10 -7 0 -6 4 3 10 19
12 23 12 15 0z m772 -27 c-3 -10 -5 -4 -5 12 0 17 2 24 5 18 2 -7 2 -21 0 -30z
m1140 -35 c-3 -8 -6 -5 -6 6 -1 11 2 17 5 13 3 -3 4 -12 1 -19z"/>
<path d="M1720 2785 c-7 -9 -10 -18 -7 -21 3 -3 10 4 17 15 13 25 8 27 -10 6z"/>
<path d="M1680 2775 c-8 -9 -8 -15 -2 -15 12 0 26 19 19 26 -2 2 -10 -2 -17
-11z"/>
<path d="M1830 2779 c0 -5 5 -7 10 -4 6 3 10 8 10 11 0 2 -4 4 -10 4 -5 0 -10
-5 -10 -11z"/>
<path d="M1578 2532 c-16 -9 -28 -21 -28 -26 0 -4 6 -4 13 2 7 7 29 18 48 26
23 11 28 15 14 15 -11 0 -32 -7 -47 -17z"/>
<path d="M1684 2541 c5 -7 -4 -11 -26 -11 -18 0 -49 -8 -68 -18 -19 -11 -40
-17 -46 -15 -13 4 -27 -24 -18 -38 3 -6 12 -5 21 2 12 10 16 10 23 -1 4 -7 15
-10 24 -7 9 4 16 1 16 -5 0 -6 3 -8 7 -5 3 4 12 2 20 -4 9 -8 13 -8 13 -1 0
14 -41 37 -59 33 -20 -4 7 23 34 33 11 4 16 4 12 0 -10 -11 23 -44 44 -44 10
0 25 10 33 22 12 17 18 20 28 10 9 -9 9 -15 0 -24 -18 -18 -15 -25 13 -25 26
0 34 12 13 20 -9 3 -7 7 5 12 22 9 29 3 31 -29 1 -33 16 -34 16 -2 0 39 -17
74 -42 87 -22 12 -22 11 -8 -6 14 -17 14 -17 -15 -3 -45 23 -79 32 -71 19z"/>
<path d="M2035 2525 c-49 -30 -64 -32 -40 -5 27 30 0 24 -34 -7 -24 -22 -29
-34 -24 -55 3 -16 10 -28 15 -28 5 0 7 4 3 9 -3 5 8 19 25 31 22 16 28 17 24
6 -3 -9 -1 -16 5 -16 6 0 11 4 11 8 0 5 11 14 25 20 20 9 25 9 25 -2 0 -7 9
-21 19 -30 22 -20 52 -10 70 22 9 15 10 15 11 -4 0 -12 -7 -25 -16 -28 -16 -6
-10 -26 8 -26 6 0 8 3 5 7 -8 8 11 33 25 33 6 0 5 -7 -2 -15 -10 -12 -10 -15
4 -15 9 0 16 4 16 9 0 12 31 8 58 -7 12 -7 22 -11 23 -10 5 22 2 98 -3 98 -5
0 -10 0 -13 0 -3 0 -5 -3 -6 -7 -2 -21 -32 -24 -52 -5 -55 50 -119 56 -182 17z
m153 -13 c31 -20 21 -26 -14 -7 -38 19 -87 19 -127 -1 -18 -9 -27 -11 -21 -4
19 19 87 39 114 33 14 -4 35 -13 48 -21z"/>
<path d="M1990 2448 c0 -7 5 -9 30 -12 6 -1 9 3 8 9 -4 11 -38 15 -38 3z"/>
<path d="M1665 2440 c-3 -5 -1 -10 4 -10 6 0 11 5 11 10 0 6 -2 10 -4 10 -3 0
-8 -4 -11 -10z"/>
<path d="M1690 2444 c0 -16 27 -30 45 -23 14 5 16 8 5 9 -8 2 -18 2 -22 1 -5
0 -8 4 -8 9 0 6 -4 10 -10 10 -5 0 -10 -3 -10 -6z"/>
<path d="M2080 2420 c-13 -8 -12 -10 3 -10 9 0 17 5 17 10 0 12 -1 12 -20 0z"/>
<path d="M2115 2420 c-3 -5 -1 -10 4 -10 6 0 11 5 11 10 0 6 -2 10 -4 10 -3 0
-8 -4 -11 -10z"/>
<path d="M1749 2388 l-12 -23 24 20 c13 11 26 21 28 22 2 2 -3 3 -12 3 -9 0
-22 -10 -28 -22z"/>
<path d="M1942 2246 c-16 -17 -19 -27 -11 -32 8 -4 9 -3 5 4 -8 13 3 16 20 4
13 -8 34 -46 34 -61 0 -6 -7 -7 -17 -4 -11 4 -14 3 -9 -6 6 -8 -3 -10 -33 -5
-30 5 -48 2 -67 -11 -14 -9 -35 -15 -45 -12 -11 3 -19 0 -19 -6 0 -7 -10 0
-21 16 -11 15 -28 27 -37 27 -11 0 -7 -10 17 -34 l32 -33 -25 -7 c-13 -3 -34
-20 -46 -36 -20 -28 -50 -44 -34 -19 5 8 1 8 -14 0 -37 -20 -88 -111 -63 -111
6 0 11 4 11 8 0 5 17 7 38 6 20 -2 105 -6 187 -9 216 -9 219 -9 233 -18 8 -5
12 -3 12 7 0 9 4 16 10 16 5 0 7 -7 4 -15 -5 -11 -2 -13 10 -9 24 9 19 41 -11
72 -30 29 -79 60 -68 43 10 -17 -2 -13 -40 12 -19 12 -36 30 -38 39 -5 17 -22
19 -44 5 -7 -5 -17 -5 -23 -2 -6 4 -9 -4 -7 -17 1 -14 -3 -22 -10 -21 -8 2
-10 -4 -6 -14 4 -11 8 -13 11 -5 2 8 15 0 32 -18 15 -17 34 -28 42 -25 8 3 14
-2 15 -14 1 -17 -2 -18 -28 -11 -18 5 -27 5 -24 -1 4 -5 1 -9 -4 -9 -6 0 -11
5 -11 10 0 6 -5 10 -11 10 -5 0 -7 -5 -4 -10 7 -12 -37 -4 -67 11 -22 12 -31
11 -23 -2 5 -7 -9 -9 -42 -7 -34 2 -47 7 -45 17 2 8 -3 11 -12 8 -10 -4 -13
-1 -10 8 6 14 34 9 34 -6 0 -5 7 -9 15 -9 8 0 15 5 15 10 0 6 6 10 14 10 23 0
61 59 47 73 -6 6 -11 18 -11 27 0 13 10 16 63 13 66 -4 141 17 150 41 7 17
-31 96 -45 96 -6 0 -8 7 -4 15 7 20 5 19 -22 -9z m-22 -126 c0 -5 -4 -10 -9
-10 -6 0 -13 5 -16 10 -3 6 1 10 9 10 9 0 16 -4 16 -10z m3 -75 c-3 -9 -8 -14
-10 -11 -3 3 -2 9 2 15 9 16 15 13 8 -4z m77 -95 c0 -5 -5 -10 -11 -10 -5 0
-7 5 -4 10 3 6 8 10 11 10 2 0 4 -4 4 -10z"/>
<path d="M1745 2240 c-10 -11 -13 -20 -8 -20 13 0 38 29 31 35 -3 3 -13 -4
-23 -15z"/>
<path d="M1950 1884 c-23 -26 -43 -31 -107 -25 -34 4 -59 3 -57 -1 3 -4 12 -8
20 -8 8 0 14 -4 14 -10 0 -5 -4 -10 -10 -10 -5 0 -7 -7 -4 -15 4 -8 12 -15 20
-15 7 0 11 -6 8 -14 -7 -19 16 -32 27 -15 5 8 9 10 9 5 0 -6 6 -2 13 9 8 10
19 15 25 11 6 -3 14 -1 18 5 7 12 -15 31 -28 23 -4 -3 -8 -1 -8 5 0 5 14 12
30 16 17 4 30 13 30 20 0 15 27 28 41 19 5 -3 9 0 9 5 0 17 -36 13 -50 -5z"/>
<path d="M1625 1870 c-3 -5 -1 -10 4 -10 6 0 11 5 11 10 0 6 -2 10 -4 10 -3 0
-8 -4 -11 -10z"/>
<path d="M1625 1840 c3 -5 8 -10 11 -10 2 0 4 5 4 10 0 6 -5 10 -11 10 -5 0
-7 -4 -4 -10z"/>
<path d="M1820 1742 c0 -4 15 -8 33 -9 26 -2 28 0 12 7 -26 11 -45 12 -45 2z"/>
<path d="M2480 2214 c0 -8 5 -12 10 -9 6 3 10 10 10 16 0 5 -4 9 -10 9 -5 0
-10 -7 -10 -16z"/>
<path d="M2470 1561 c0 -5 5 -13 10 -16 6 -3 10 -2 10 4 0 5 -4 13 -10 16 -5
3 -10 2 -10 -4z"/>
<path d="M2441 1524 c0 -11 3 -14 6 -6 3 7 2 16 -1 19 -3 4 -6 -2 -5 -13z"/>
<path d="M3192 1072 c-7 -5 -10 -16 -7 -24 7 -17 -21 -33 -30 -18 -4 6 -1 10
4 10 6 0 11 4 11 10 0 5 -16 0 -35 -11 -19 -12 -35 -25 -35 -30 0 -15 63 -4
95 16 17 11 31 20 33 21 5 3 -10 34 -17 34 -3 0 -12 -4 -19 -8z m-37 -52 c3
-5 1 -10 -4 -10 -6 0 -11 5 -11 10 0 6 2 10 4 10 3 0 8 -4 11 -10z"/>
<path d="M3238 1013 c7 -3 16 -2 19 1 4 3 -2 6 -13 5 -11 0 -14 -3 -6 -6z"/>
<path d="M3162 530 c0 -14 2 -19 5 -12 2 6 2 18 0 25 -3 6 -5 1 -5 -13z"/>
<path d="M2685 1180 c4 -25 7 -58 6 -75 0 -24 2 -27 9 -14 12 21 6 91 -10 116
-9 15 -10 9 -5 -27z"/>
<path d="M2743 1093 c-10 -4 -10 -10 -2 -25 10 -18 9 -19 -13 -7 -22 12 -23
11 -5 -8 9 -11 16 -22 15 -24 -2 -2 3 3 10 11 7 8 15 13 17 10 2 -3 7 -1 12 4
5 6 2 6 -6 1 -10 -6 -13 -4 -9 7 8 19 -3 36 -19 31z"/>
<path d="M2662 985 c0 -16 2 -22 5 -12 2 9 2 23 0 30 -3 6 -5 -1 -5 -18z"/>
<path d="M2820 949 c0 -5 5 -7 10 -4 6 3 10 8 10 11 0 2 -4 4 -10 4 -5 0 -10
-5 -10 -11z"/>
<path d="M2763 836 c0 -40 -3 -78 -7 -84 -5 -8 -2 -10 8 -6 13 5 16 23 15 85
-1 43 -4 79 -8 79 -5 0 -8 -33 -8 -74z"/>
<path d="M2766 724 c-9 -23 -7 -46 3 -40 5 3 9 17 9 31 0 29 -3 31 -12 9z"/>
<path d="M2760 635 c0 -14 4 -25 9 -25 5 0 9 11 9 25 0 14 -4 25 -9 25 -5 0
-9 -11 -9 -25z"/>
<path d="M2913 621 c1 -11 9 -22 19 -24 14 -4 18 1 18 19 0 17 -6 24 -19 24
-13 0 -19 -6 -18 -19z"/>
<path d="M2580 510 c20 -13 33 -13 25 0 -3 6 -14 10 -23 10 -15 0 -15 -2 -2
-10z"/>
<path d="M2745 490 c3 -5 10 -10 16 -10 5 0 9 5 9 10 0 6 -7 10 -16 10 -8 0
-12 -4 -9 -10z"/>
<path d="M2578 473 c6 -2 18 -2 25 0 6 3 1 5 -13 5 -14 0 -19 -2 -12 -5z"/>
<path d="M2853 473 c9 -2 23 -2 30 0 6 3 -1 5 -18 5 -16 0 -22 -2 -12 -5z"/>
<path d="M2740 458 c0 -4 7 -8 15 -8 8 0 15 4 15 8 0 5 -7 9 -15 9 -8 0 -15
-4 -15 -9z"/>
<path d="M2878 439 c13 -12 72 -21 72 -11 0 6 -18 12 -40 14 -22 2 -36 0 -32
-3z"/>
<path d="M2865 390 c3 -5 8 -10 11 -10 2 0 4 5 4 10 0 6 -5 10 -11 10 -5 0 -7
-4 -4 -10z"/>
<path d="M2901 370 c-11 -6 -10 -14 7 -42 12 -18 31 -46 44 -61 l24 -27 2 26
c2 25 -25 73 -41 74 -5 0 -5 -4 -2 -10 3 -5 2 -10 -2 -10 -5 0 -14 10 -22 21
-11 19 -11 21 3 16 9 -4 16 -2 16 3 0 14 -15 19 -29 10z m69 -86 c0 -8 -4 -12
-10 -9 -5 3 -10 10 -10 16 0 5 5 9 10 9 6 0 10 -7 10 -16z"/>
<path d="M2719 319 l-24 -20 28 17 c15 9 27 18 27 20 0 8 -8 4 -31 -17z"/>
<path d="M2741 300 c-13 -11 -19 -20 -14 -20 6 0 18 9 28 20 23 25 17 25 -14
0z"/>
<path d="M2769 263 c-13 -16 -12 -17 4 -4 16 13 21 21 13 21 -2 0 -10 -8 -17
-17z"/>
<path d="M1190 710 c0 -5 7 -10 15 -10 8 0 15 5 15 10 0 6 -7 10 -15 10 -8 0
-15 -4 -15 -10z"/>
<path d="M1188 683 c6 -2 18 -2 25 0 6 3 1 5 -13 5 -14 0 -19 -2 -12 -5z"/>
<path d="M1143 553 c9 -2 23 -2 30 0 6 3 -1 5 -18 5 -16 0 -22 -2 -12 -5z"/>
<path d="M1128 523 c7 -3 16 -2 19 1 4 3 -2 6 -13 5 -11 0 -14 -3 -6 -6z"/>
<path d="M1178 523 c7 -3 16 -2 19 1 4 3 -2 6 -13 5 -11 0 -14 -3 -6 -6z"/>
<path d="M3407 843 c-3 -5 -1 -19 4 -32 12 -30 31 -15 23 17 -6 22 -19 29 -27
15z"/>
<path d="M3486 544 c13 -101 27 -164 36 -164 11 0 9 16 -15 123 -18 78 -29 99
-21 41z"/>
<path d="M2350 1736 c0 -10 5 -14 10 -11 11 7 14 -8 3 -18 -3 -4 -7 -20 -7
-36 -1 -42 17 -21 20 23 2 21 -3 39 -11 46 -12 10 -15 9 -15 -4z"/>
<path d="M1450 1520 c0 -5 -6 -7 -12 -5 -7 3 -24 -4 -38 -15 l-25 -20 28 0
c19 0 26 -4 21 -12 -4 -7 -3 -8 5 -4 17 11 43 66 31 66 -5 0 -10 -4 -10 -10z"/>
<path d="M2705 1510 c3 -5 11 -10 16 -10 6 0 7 5 4 10 -3 6 -11 10 -16 10 -6
0 -7 -4 -4 -10z"/>
<path d="M2758 1503 c6 -2 18 -2 25 0 6 3 1 5 -13 5 -14 0 -19 -2 -12 -5z"/>
<path d="M2760 1486 c0 -2 7 -7 16 -10 8 -3 12 -2 9 4 -6 10 -25 14 -25 6z"/>
<path d="M2680 1460 c-13 -9 -13 -11 0 -20 15 -10 40 -14 40 -6 0 11 -13 36
-19 36 -3 0 -13 -5 -21 -10z"/>
<path d="M1250 1420 c-83 -42 -231 -112 -310 -145 -46 -20 -105 -51 -130 -70
-44 -33 -90 -85 -90 -104 0 -5 -12 -23 -26 -40 -14 -17 -36 -58 -50 -93 -25
-65 -31 -93 -13 -68 9 12 9 11 4 -5 -45 -125 -57 -165 -71 -237 -9 -46 -17
-97 -18 -115 0 -17 -4 -29 -8 -26 -5 2 -9 -15 -9 -39 -3 -70 -4 -76 -11 -83
-4 -4 -4 -21 -1 -38 5 -23 3 -28 -7 -22 -10 6 -12 4 -6 -11 27 -67 13 -170
-34 -255 -36 -65 -36 -68 -8 -66 21 1 59 27 41 27 -4 0 -2 4 5 9 22 13 30 73
25 185 -3 74 -1 106 7 106 7 0 5 9 -4 22 -24 34 -19 44 9 18 20 -19 22 -26 13
-38 -9 -10 -12 -52 -11 -134 2 -92 -1 -125 -13 -142 -19 -30 -8 -56 22 -56 22
0 24 4 24 48 0 26 8 76 19 112 16 58 19 62 26 40 5 -14 7 -37 6 -52 -1 -16 2
-28 8 -28 14 0 14 -47 1 -55 -5 -3 -10 -18 -10 -33 0 -21 2 -24 10 -12 8 13
10 12 10 -2 0 -10 5 -18 10 -18 12 0 14 36 3 43 -5 2 -3 2 4 1 6 -2 14 5 17
14 3 9 4 0 1 -20 l-4 -38 80 0 c43 0 79 1 79 3 0 1 -4 27 -9 58 -5 31 -12 100
-16 155 -4 54 -10 146 -14 204 -4 58 -9 169 -10 247 -1 90 -7 160 -16 191 -11
37 -13 66 -7 111 l9 61 -30 0 c-25 0 -28 2 -17 15 8 9 21 13 34 10 14 -4 17
-3 8 3 -23 16 25 59 192 171 88 59 179 120 200 134 21 15 43 27 49 27 12 0
-35 -45 -56 -53 -14 -5 -14 -9 0 -37 8 -17 16 -30 17 -28 1 2 9 13 20 25 18
21 17 22 -6 17 -22 -4 -22 -4 2 8 14 7 29 17 33 23 6 7 10 6 13 -2 4 -8 17 -4
41 13 20 13 40 24 44 24 5 0 9 7 9 15 0 8 7 15 16 15 8 0 12 5 9 11 -4 6 -9 8
-12 6 -2 -3 -17 -2 -32 3 -19 5 -37 2 -61 -10z m30 -15 c-7 -8 -17 -15 -22
-15 -6 0 -5 7 2 15 7 8 17 15 22 15 6 0 5 -7 -2 -15z m26 -20 c-26 -19 -42
-19 -26 0 7 8 20 15 29 15 13 -1 13 -3 -3 -15z m-614 -377 c-3 -18 -14 -45
-25 -60 -22 -30 -35 -31 -18 -1 6 10 17 35 25 56 18 46 24 47 18 5z m-5 -90
c-3 -8 -6 -5 -6 6 -1 11 2 17 5 13 3 -3 4 -12 1 -19z m15 -72 c-2 -5 -9 -1
-14 8 -5 9 -6 21 -2 28 9 14 25 -22 16 -36z m-1 -95 c-15 -31 -21 -60 -19 -86
l4 -40 12 28 c7 15 17 39 23 55 l11 27 13 -25 c8 -14 14 -36 14 -50 l-1 -25
-7 24 c-9 34 -27 37 -35 6 -7 -27 2 -77 13 -71 3 2 4 -15 3 -38 -2 -24 1 -59
6 -78 6 -21 6 -41 1 -49 -6 -10 -9 -3 -10 21 0 29 -2 31 -9 15 -15 -34 -11
-41 30 -70 22 -15 40 -32 40 -38 0 -6 -9 -2 -21 9 -17 16 -22 16 -31 4 -8 -13
-9 -12 -5 2 7 20 -23 34 -35 16 -12 -20 -11 -22 47 -47 53 -23 55 -25 55 -62
0 -44 0 -44 -66 -24 -57 17 -67 18 -60 6 3 -4 31 -16 63 -26 32 -10 53 -20 47
-22 -6 -2 -36 6 -67 17 l-56 21 5 47 c3 25 7 49 9 53 15 23 43 191 38 226 -6
43 -23 50 -23 11 0 -12 -7 -48 -16 -80 l-17 -58 -28 17 c-16 9 -31 23 -33 30
-9 22 14 121 44 196 16 40 28 90 28 112 0 59 0 59 28 25 l27 -31 -22 -48z
m-56 69 c3 -6 -1 -7 -9 -4 -18 7 -21 14 -7 14 6 0 13 -4 16 -10z m75 -90 c-6
-12 -14 -20 -17 -17 -2 3 1 14 8 26 17 26 24 19 9 -9z m55 0 c3 -5 1 -10 -4
-10 -6 0 -11 5 -11 10 0 6 2 10 4 10 3 0 8 -4 11 -10z m-196 -169 c-3 -65 6
-83 53 -107 16 -8 26 -19 22 -25 -3 -6 -10 -36 -15 -67 -5 -31 -11 -69 -13
-84 -3 -16 -1 -28 4 -28 6 0 10 -4 10 -10 0 -5 -6 -7 -13 -4 -8 3 -17 34 -23
82 -10 84 -8 125 6 117 5 -3 7 -12 4 -19 -3 -8 0 -17 7 -22 9 -5 10 -2 6 9 -3
9 -2 17 3 19 4 2 -3 11 -16 21 -23 17 -24 17 -24 0 0 -28 -15 -44 -33 -37 -21
8 -22 46 -2 85 9 16 15 39 14 52 -3 35 0 77 7 77 3 0 4 -27 3 -59z m118 -63
c-3 -8 -6 -5 -6 6 -1 11 2 17 5 13 3 -3 4 -12 1 -19z m-20 -80 c-3 -8 -6 -5
-6 6 -1 11 2 17 5 13 3 -3 4 -12 1 -19z m103 -14 c0 -8 -4 -12 -10 -9 -5 3
-10 13 -10 21 0 8 5 12 10 9 6 -3 10 -13 10 -21z m-210 -25 c0 -4 -7 -6 -15
-3 -8 4 -15 10 -15 15 0 4 7 6 15 3 8 -4 15 -10 15 -15z m80 -76 c-11 -17 -11
-17 -6 0 3 10 7 31 7 45 l2 27 4 -27 c2 -15 -1 -35 -7 -45z m-55 -43 c3 -6 -1
-7 -9 -4 -18 7 -21 14 -7 14 6 0 13 -4 16 -10z m187 -82 c-5 -5 -32 0 -63 11
-30 12 -55 21 -56 21 -2 0 -3 -9 -3 -20 0 -12 7 -20 17 -20 24 0 103 -40 103
-52 0 -6 -7 -7 -17 -3 -10 5 -40 16 -68 26 -48 17 -50 19 -46 51 1 18 5 36 7
40 2 3 33 -5 69 -20 38 -14 62 -29 57 -34z m-272 -98 c0 -5 -5 -10 -11 -10 -5
0 -7 5 -4 10 3 6 8 10 11 10 2 0 4 -4 4 -10z"/>
<path d="M636 514 c-5 -14 -4 -15 9 -4 17 14 19 20 6 20 -5 0 -12 -7 -15 -16z"/>
<path d="M2724 1414 c-12 -5 1 -34 43 -102 16 -26 22 -30 27 -17 9 23 8 25
-10 25 -11 0 -14 5 -10 16 5 12 -29 87 -37 83 -1 0 -7 -3 -13 -5z"/>
<path d="M2850 1390 c14 -4 32 -8 40 -9 13 -1 13 0 0 9 -8 5 -26 9 -40 9 l-25
-1 25 -8z"/>
<path d="M2150 1370 c0 -5 5 -10 10 -10 6 0 10 5 10 10 0 6 -4 10 -10 10 -5 0
-10 -4 -10 -10z"/>
<path d="M2850 1357 c0 -11 30 -36 45 -37 5 0 4 5 -3 12 -8 8 -8 15 -2 24 8 8
4 12 -15 12 -14 0 -25 -5 -25 -11z"/>
<path d="M2930 1335 c-7 -8 -9 -15 -4 -15 5 0 1 -7 -9 -14 -12 -9 -14 -16 -8
-21 6 -3 11 -1 11 4 0 6 6 11 14 11 17 0 27 23 17 39 -6 9 -11 8 -21 -4z"/>
<path d="M2987 1307 c10 -17 22 -35 28 -39 5 -4 7 -9 5 -11 -3 -2 -18 -13 -34
-25 -16 -12 -24 -22 -19 -22 6 0 21 8 34 19 13 10 34 21 47 25 12 4 20 11 17
16 -3 5 -13 7 -23 4 -14 -5 -15 -4 -2 5 13 9 12 14 -9 33 l-23 23 11 -22 c7
-14 8 -23 2 -23 -5 0 -12 9 -16 19 -3 11 -13 22 -21 25 -12 5 -12 0 3 -27z"/>
<path d="M1255 1316 c-17 -7 -38 -25 -48 -39 -9 -14 -41 -40 -72 -57 -54 -31
-57 -32 -70 -14 -32 45 -44 58 -44 49 -1 -5 8 -21 19 -35 26 -33 25 -36 -14
-62 -49 -33 -128 -109 -122 -116 3 -3 16 3 28 14 18 15 20 16 9 2 -22 -29 -7
-20 36 21 23 21 63 49 89 61 27 13 57 30 67 39 16 13 19 13 27 1 8 -13 10 -13
11 0 1 8 1 18 0 22 0 4 10 15 24 24 14 9 25 25 25 35 0 12 15 25 45 38 25 11
45 22 45 25 0 10 -23 6 -55 -8z m-95 -100 c0 -2 -12 -11 -27 -20 l-28 -17 24
20 c23 21 31 25 31 17z m-116 -72 c-21 -14 -52 -38 -68 -53 -16 -14 -26 -20
-22 -13 11 18 105 92 118 92 6 0 -7 -12 -28 -26z"/>
<path d="M1120 1284 c14 -35 12 -41 -5 -18 -11 14 -14 15 -15 4 0 -25 16 -41
33 -34 21 8 21 8 2 44 -19 37 -28 39 -15 4z"/>
<path d="M1066 1240 c21 -43 24 -47 24 -28 0 9 -9 26 -20 39 l-21 24 17 -35z"/>
<path d="M3050 1232 c0 -15 22 -31 36 -25 18 7 5 33 -17 33 -10 0 -19 -4 -19
-8z"/>
<path d="M2480 1220 c33 -23 50 -30 50 -22 0 5 -11 14 -25 20 -32 15 -45 15
-25 2z"/>
<path d="M3007 1210 c-16 -13 -24 -27 -20 -36 4 -11 9 -12 19 -3 8 6 11 15 8
20 -3 5 1 6 8 4 9 -4 14 2 15 15 2 25 2 25 -30 0z"/>
<path d="M2489 1191 c13 -12 28 -21 34 -21 12 0 11 0 -28 24 l-30 17 24 -20z"/>
<path d="M920 1176 c0 -2 8 -10 18 -17 15 -13 16 -12 3 4 -13 16 -21 21 -21
13z"/>
<path d="M890 1159 c0 -5 5 -7 10 -4 6 3 10 8 10 11 0 2 -4 4 -10 4 -5 0 -10
-5 -10 -11z"/>
<path d="M1127 1143 c6 -16 5 -16 -10 -4 -15 12 -17 11 -17 -2 0 -9 4 -18 9
-21 11 -7 43 28 34 37 -13 13 -22 7 -16 -10z"/>
<path d="M2892 1147 c-14 -17 2 -42 22 -34 20 8 20 21 2 36 -10 8 -16 8 -24
-2z"/>
<path d="M851 1133 c-18 -19 -10 -25 12 -8 10 7 15 15 10 18 -4 3 -14 -2 -22
-10z"/>
<path d="M910 1136 c0 -2 8 -10 18 -17 15 -13 16 -12 3 4 -13 16 -21 21 -21
13z"/>
<path d="M3111 1109 c-70 -40 -60 -48 13 -10 31 17 52 32 48 35 -5 3 -32 -9
-61 -25z"/>
<path d="M819 1115 c-1 -3 -2 -11 -3 -17 -1 -7 -8 -12 -15 -10 -7 1 -9 -2 -6
-9 9 -13 28 3 31 26 2 13 -4 22 -7 10z"/>
<path d="M980 1065 c-18 -22 0 -37 23 -21 14 11 15 15 3 25 -10 9 -16 8 -26
-4z"/>
<path d="M2242 1049 c1 -16 5 -29 9 -29 4 0 -6 -25 -23 -56 -42 -77 -30 -77
15 0 42 71 47 101 17 109 -17 4 -20 1 -18 -24z"/>
<path d="M3550 1059 c0 -8 7 -24 15 -35 18 -24 19 -7 0 26 -9 16 -14 19 -15 9z"/>
<path d="M863 1024 c-15 -11 -15 -13 -2 -14 8 0 21 6 28 13 11 10 12 9 5 -3
-11 -20 -12 -27 -24 -165 -5 -66 -13 -156 -17 -200 -9 -94 -10 -355 -1 -405
12 -67 22 -155 22 -199 1 -27 6 -46 14 -49 11 -3 12 20 7 124 -4 71 -11 148
-16 172 -5 24 -7 71 -4 105 2 34 7 94 9 132 12 183 18 247 28 340 11 108 20
135 44 135 8 0 13 4 9 10 -3 5 -12 7 -20 3 -8 -3 -15 -1 -15 3 0 14 -48 13
-67 -2z m67 -14 c0 -5 -7 -10 -16 -10 -8 0 -12 5 -9 10 3 6 10 10 16 10 5 0 9
-4 9 -10z m-23 -42 c-3 -8 -6 -5 -6 6 -1 11 2 17 5 13 3 -3 4 -12 1 -19z m-14
-79 c-5 -5 -7 7 -4 29 5 34 6 35 9 8 2 -16 0 -32 -5 -37z m-3 -125 c0 -25 -4
-43 -8 -40 -7 4 -4 86 4 86 2 0 4 -21 4 -46z m-15 -152 c-4 -29 -9 -51 -12
-48 -3 2 -2 38 3 78 4 40 10 62 12 49 2 -14 1 -49 -3 -79z m-13 -127 c-6 -34
-12 -32 -12 6 0 16 4 28 9 25 4 -3 6 -17 3 -31z m0 -79 c-6 -48 -12 -46 -12 5
0 22 4 38 8 35 4 -3 6 -21 4 -40z"/>
<path d="M2972 1027 c-15 -17 10 -49 32 -41 25 9 19 26 -6 19 -19 -6 -21 -5
-10 6 6 7 12 17 12 21 0 12 -16 10 -28 -5z"/>
<path d="M785 963 c-4 -47 -2 -80 8 -107 l13 -39 12 82 c7 46 10 87 7 91 -3 5
0 12 6 16 8 4 7 9 -2 15 -29 18 -37 8 -44 -58z"/>
<path d="M853 975 c-3 -9 -3 -18 -1 -21 3 -3 8 4 11 16 6 23 -1 27 -10 5z"/>
<path d="M3470 935 c-16 -19 0 -19 26 0 16 12 16 14 3 15 -9 0 -22 -7 -29 -15z"/>
<path d="M845 930 c3 -5 8 -10 11 -10 2 0 4 5 4 10 0 6 -5 10 -11 10 -5 0 -7
-4 -4 -10z"/>
<path d="M3504 899 c-25 -9 -41 -29 -23 -29 6 0 9 -8 6 -19 -4 -17 -2 -18 13
-8 14 8 16 15 9 29 -13 24 6 24 20 1 12 -20 13 -7 3 18 -5 12 -13 14 -28 8z"/>
<path d="M824 818 c-10 -65 -9 -68 10 -67 12 0 15 3 9 6 -15 5 -17 34 -5 49 5
5 6 25 2 44 -5 32 -6 28 -16 -32z"/>
<path d="M1092 830 c0 -14 2 -19 5 -12 2 6 2 18 0 25 -3 6 -5 1 -5 -13z"/>
<path d="M3522 817 c-18 -11 -31 -21 -28 -24 2 -3 15 3 29 11 24 16 25 16 35
-11 23 -65 34 -112 28 -122 -4 -6 -3 -11 2 -11 13 0 22 -39 11 -46 -13 -8 -11
-24 3 -21 11 2 19 -27 32 -107 6 -36 10 -39 34 -32 19 6 19 9 4 59 -23 77 -80
241 -100 285 l-17 38 -33 -19z"/>
<path d="M1075 789 c-11 -16 -1 -19 13 -3 7 8 8 14 3 14 -5 0 -13 -5 -16 -11z"/>
<path d="M2501 758 c1 -19 2 -20 6 -4 4 15 7 16 15 5 8 -12 9 -12 6 0 -7 25
-28 24 -27 -1z"/>
<path d="M3524 772 c-9 -5 -8 -10 1 -19 10 -9 14 -8 18 8 5 20 0 24 -19 11z"/>
<path d="M1532 740 c0 -14 2 -19 5 -12 2 6 2 18 0 25 -3 6 -5 1 -5 -13z"/>
<path d="M1068 743 c6 -2 18 -2 25 0 6 3 1 5 -13 5 -14 0 -19 -2 -12 -5z"/>
<path d="M810 711 c0 -10 7 -21 15 -25 8 -3 15 -1 15 4 0 6 -6 10 -12 10 -10
0 -10 2 0 9 11 7 11 9 -2 14 -11 4 -16 1 -16 -12z"/>
<path d="M2495 720 c3 -5 14 -10 23 -10 15 0 15 2 2 10 -20 13 -33 13 -25 0z"/>
<path d="M1068 703 c7 -3 16 -2 19 1 4 3 -2 6 -13 5 -11 0 -14 -3 -6 -6z"/>
<path d="M3304 687 c-20 -11 -20 -14 -7 -26 14 -12 15 -12 11 0 -3 8 2 19 11
26 20 16 12 16 -15 0z"/>
<path d="M1065 680 c-3 -5 1 -10 10 -10 9 0 13 5 10 10 -3 6 -8 10 -10 10 -2
0 -7 -4 -10 -10z"/>
<path d="M2483 670 c-1 -11 1 -20 3 -20 11 0 33 28 27 34 -13 13 -29 5 -30
-14z"/>
<path d="M1374 656 c-3 -8 -4 -27 -2 -43 3 -23 5 -20 9 15 5 43 2 53 -7 28z"/>
<path d="M2496 631 c-11 -12 -14 -21 -7 -26 6 -3 11 0 11 9 0 8 6 16 13 19 6
2 9 7 6 11 -3 3 -14 -2 -23 -13z"/>
<path d="M1428 583 c6 -2 18 -2 25 0 6 3 1 5 -13 5 -14 0 -19 -2 -12 -5z"/>
<path d="M2470 581 c0 -12 28 -22 35 -12 3 5 -2 12 -11 15 -21 8 -24 8 -24 -3z"/>
<path d="M3347 580 c-18 -43 -15 -179 4 -149 6 10 11 10 25 -2 16 -13 16 -12
-1 14 -11 17 -16 39 -13 60 6 40 -6 99 -15 77z"/>
<path d="M1340 571 c0 -14 29 -22 58 -14 l27 7 -25 7 c-36 10 -60 10 -60 0z"/>
<path d="M3590 565 c-8 -9 -8 -15 -2 -15 12 0 26 19 19 26 -2 2 -10 -2 -17
-11z"/>
<path d="M900 556 c0 -2 11 -6 25 -8 13 -3 22 -1 19 3 -5 9 -44 13 -44 5z"/>
<path d="M1560 549 c0 -5 5 -7 10 -4 6 3 10 8 10 11 0 2 -4 4 -10 4 -5 0 -10
-5 -10 -11z"/>
<path d="M2468 523 c6 -2 18 -2 25 0 6 3 1 5 -13 5 -14 0 -19 -2 -12 -5z"/>
<path d="M1329 497 c5 -5 17 -5 28 2 16 9 15 10 -9 9 -16 -2 -24 -6 -19 -11z"/>
<path d="M2460 490 c0 -5 9 -10 20 -10 11 0 20 5 20 10 0 6 -9 10 -20 10 -11
0 -20 -4 -20 -10z"/>
<path d="M1568 484 c-8 -7 2 -44 12 -44 4 0 8 11 8 25 0 24 -8 31 -20 19z"/>
<path d="M896 465 c-4 -13 -2 -14 14 -5 23 13 26 20 6 20 -8 0 -16 -7 -20 -15z"/>
<path d="M2093 468 c-14 -19 -83 -166 -83 -178 0 -5 -11 -33 -24 -62 -37 -81
-68 -159 -76 -195 -8 -32 -7 -33 24 -33 32 0 33 2 45 58 7 31 15 66 18 77 6
20 6 20 13 0 5 -15 9 -8 14 28 4 27 5 51 2 55 -3 3 -6 -6 -6 -21 0 -14 -5 -29
-12 -33 -8 -5 -9 -2 -5 10 4 10 7 26 7 37 0 10 6 19 14 19 9 0 20 25 31 75 18
83 28 98 20 33 l-5 -43 16 50 c12 34 13 50 5 53 -16 5 -14 22 3 22 14 0 26 21
26 46 0 17 -14 18 -27 2z m-66 -210 c-3 -8 -6 -5 -6 6 -1 11 2 17 5 13 3 -3 4
-12 1 -19z"/>
<path d="M1276 459 c2 -4 -4 -12 -13 -18 -10 -6 -14 -11 -10 -11 5 0 20 9 34
19 22 18 22 20 4 18 -11 0 -18 -4 -15 -8z"/>
<path d="M2130 456 c0 -8 -3 -23 -6 -33 -5 -12 -4 -15 3 -8 16 15 26 55 14 55
-6 0 -11 -6 -11 -14z"/>
<path d="M951 427 c-11 -15 -6 -47 9 -47 4 0 13 7 20 16 11 12 11 18 -2 30
-13 13 -16 13 -27 1z m24 -17 c3 -5 1 -10 -4 -10 -6 0 -11 5 -11 10 0 6 2 10
4 10 3 0 8 -4 11 -10z"/>
<path d="M3669 432 c-11 -2 -16 -12 -15 -28 1 -25 12 -30 34 -16 18 12 2 49
-19 44z"/>
<path d="M1335 376 c-92 -61 -133 -101 -138 -135 -5 -30 -31 -50 -60 -45 -20
4 -19 3 2 -6 14 -6 31 -8 38 -6 17 7 17 -21 -1 -70 -7 -22 -16 -56 -20 -76
l-7 -38 75 0 76 0 -3 135 c-2 74 0 135 5 135 4 0 8 -49 8 -110 l0 -110 31 0
30 0 -2 117 c-1 71 3 119 9 121 6 2 9 -41 7 -120 -2 -88 -1 -109 5 -73 4 28
10 100 12 160 3 61 3 98 1 83 -3 -17 -13 -29 -31 -36 -26 -10 -94 -25 -118
-27 -6 0 -20 -7 -30 -15 -11 -8 -8 -2 6 14 26 30 170 130 176 123 3 -2 -32
-28 -77 -56 -44 -29 -79 -55 -76 -57 5 -5 38 14 128 73 26 17 37 31 37 48 0
14 -1 25 -2 24 0 0 -37 -24 -81 -53z"/>
<path d="M2480 421 c0 -5 7 -11 15 -15 8 -3 15 -1 15 3 0 5 -7 11 -15 15 -8 3
-15 1 -15 -3z"/>
<path d="M1227 413 c-4 -3 -7 -13 -7 -22 1 -13 3 -13 11 2 11 19 8 33 -4 20z"/>
<path d="M2520 409 c0 -5 5 -7 10 -4 6 3 10 8 10 11 0 2 -4 4 -10 4 -5 0 -10
-5 -10 -11z"/>
<path d="M3350 410 c-8 -5 -12 -12 -9 -15 4 -3 12 1 19 10 14 17 11 19 -10 5z"/>
<path d="M903 390 c4 -27 27 -51 27 -28 0 24 -11 48 -21 48 -5 0 -7 -9 -6 -20z"/>
<path d="M1568 403 c7 -3 16 -2 19 1 4 3 -2 6 -13 5 -11 0 -14 -3 -6 -6z"/>
<path d="M2440 390 c-23 -17 -23 -19 -6 -35 17 -17 19 -17 42 6 22 23 23 25 6
36 -14 8 -23 7 -42 -7z"/>
<path d="M2109 374 c-6 -16 -23 -94 -39 -174 -15 -80 -31 -158 -35 -175 -5
-20 -4 -27 2 -20 14 14 39 116 53 213 6 46 18 104 25 129 16 53 12 72 -6 27z"/>
<path d="M1350 320 c-13 -8 -12 -10 3 -10 9 0 17 5 17 10 0 12 -1 12 -20 0z"/>
<path d="M1561 284 c2 -33 3 -35 6 -10 4 22 7 26 14 15 5 -8 9 -9 9 -3 0 6 -7
17 -15 24 -13 11 -15 7 -14 -26z"/>
<path d="M2599 287 c-42 -32 -81 -68 -77 -73 10 -9 35 7 48 31 7 13 16 22 20
20 8 -5 35 23 29 29 -2 3 -11 -1 -20 -7z"/>
<path d="M3365 290 c-8 -13 5 -13 25 0 13 8 13 10 -2 10 -9 0 -20 -4 -23 -10z"/>
<path d="M2125 280 c-3 -5 -2 -10 4 -10 5 0 13 5 16 10 3 6 2 10 -4 10 -5 0
-13 -4 -16 -10z"/>
<path d="M831 254 c0 -11 3 -14 6 -6 3 7 2 16 -1 19 -3 4 -6 -2 -5 -13z"/>
<path d="M3370 260 c-13 -9 -13 -10 0 -10 8 0 22 5 30 10 13 9 13 10 0 10 -8
0 -22 -5 -30 -10z"/>
<path d="M2642 230 c14 -22 24 -19 15 5 -4 8 -11 15 -17 15 -6 0 -6 -7 2 -20z"/>
<path d="M1553 219 c-1 -12 4 -15 18 -12 24 7 25 29 1 29 -10 0 -19 -8 -19
-17z"/>
<path d="M2052 220 c0 -14 2 -19 5 -12 2 6 2 18 0 25 -3 6 -5 1 -5 -13z"/>
<path d="M2106 225 c-3 -9 -6 -22 -5 -28 0 -7 5 -1 10 12 5 13 8 26 5 28 -2 2
-6 -3 -10 -12z"/>
<path d="M830 211 c0 -6 4 -13 10 -16 6 -3 7 1 4 9 -7 18 -14 21 -14 7z"/>
<path d="M492 180 c0 -14 2 -19 5 -12 2 6 2 18 0 25 -3 6 -5 1 -5 -13z"/>
<path d="M2640 170 c-28 -24 -31 -28 -12 -23 12 3 22 9 22 14 0 5 7 6 15 3 20
-8 35 4 28 21 -7 20 -13 19 -53 -15z"/>
<path d="M3728 189 c-9 -5 -15 -16 -12 -24 4 -9 -3 -16 -20 -21 -14 -3 -26
-10 -26 -14 0 -5 20 -2 44 6 38 13 42 18 38 39 -2 14 -5 25 -6 25 0 0 -9 -5
-18 -11z"/>
<path d="M1551 174 c0 -11 3 -14 6 -6 3 7 2 16 -1 19 -3 4 -6 -2 -5 -13z"/>
<path d="M2042 160 c0 -14 2 -19 5 -12 2 6 2 18 0 25 -3 6 -5 1 -5 -13z"/>
<path d="M1163 162 c-7 -4 -9 -13 -4 -21 6 -9 10 -7 14 8 3 12 4 21 4 21 -1 0
-7 -4 -14 -8z"/>
<path d="M3645 160 l-20 -9 20 0 c11 0 27 4 35 9 13 9 13 10 0 9 -8 0 -24 -4
-35 -9z"/>
<path d="M611 144 c0 -11 3 -14 6 -6 3 7 2 16 -1 19 -3 4 -6 -2 -5 -13z"/>
<path d="M1545 140 c-3 -5 -1 -10 4 -10 6 0 11 5 11 10 0 6 -2 10 -4 10 -3 0
-8 -4 -11 -10z"/>
<path d="M1030 115 c-11 -13 -11 -18 0 -28 10 -10 12 -9 7 5 -3 9 -1 19 6 21
7 2 9 7 6 11 -3 4 -12 -1 -19 -9z"/>
<path d="M2032 110 c0 -14 2 -19 5 -12 2 6 2 18 0 25 -3 6 -5 1 -5 -13z"/>
<path d="M617 113 c-2 -4 -1 -17 3 -27 6 -19 7 -19 14 -1 7 19 -8 44 -17 28z"/>
<path d="M2442 100 c0 -14 2 -19 5 -12 2 6 2 18 0 25 -3 6 -5 1 -5 -13z"/>
<path d="M1540 92 c0 -7 5 -10 10 -7 6 3 10 -3 10 -14 0 -14 -5 -19 -15 -15
-8 4 -15 2 -15 -3 0 -5 9 -9 20 -10 13 -1 20 4 20 17 0 10 3 25 6 34 4 11 0
14 -15 13 -12 -1 -21 -7 -21 -15z"/>
<path d="M2002 85 c0 -16 2 -22 5 -12 2 9 2 23 0 30 -3 6 -5 -1 -5 -18z"/>
<path d="M3413 103 c-34 -7 -28 -20 7 -15 17 2 30 8 30 13 0 5 -3 8 -7 8 -5
-1 -18 -4 -30 -6z"/>
<path d="M2421 95 c-12 -76 -12 -83 3 -88 18 -7 20 1 7 22 -7 10 -4 19 7 28
10 7 12 13 5 13 -6 0 -14 8 -16 18 -3 9 -5 13 -6 7z"/>
<path d="M3690 89 c0 -5 5 -7 10 -4 6 3 10 8 10 11 0 2 -4 4 -10 4 -5 0 -10
-5 -10 -11z"/>
<path d="M2021 64 c0 -11 3 -14 6 -6 3 7 2 16 -1 19 -3 4 -6 -2 -5 -13z"/>
<path d="M1015 60 c-3 -5 1 -10 9 -10 9 0 16 5 16 10 0 6 -4 10 -9 10 -6 0
-13 -4 -16 -10z"/>
<path d="M2072 40 c0 -14 2 -19 5 -12 2 6 2 18 0 25 -3 6 -5 1 -5 -13z"/>
<path d="M3660 50 c0 -5 4 -10 9 -10 6 0 13 5 16 10 3 6 -1 10 -9 10 -9 0 -16
-4 -16 -10z"/>
<path d="M1991 34 c0 -11 3 -14 6 -6 3 7 2 16 -1 19 -3 4 -6 -2 -5 -13z"/>
<path d="M2011 24 c0 -11 3 -14 6 -6 3 7 2 16 -1 19 -3 4 -6 -2 -5 -13z"/>
<path d="M1015 20 c-3 -5 3 -10 15 -10 12 0 18 5 15 10 -3 6 -10 10 -15 10 -5
0 -12 -4 -15 -10z"/>
<path d="M1310 15 c0 -17 45 -21 55 -5 4 6 11 8 16 5 5 -4 9 -1 9 4 0 6 -18
11 -40 11 -29 0 -40 -4 -40 -15z"/>
<path d="M1690 21 c0 -5 5 -13 10 -16 6 -3 10 -2 10 4 0 5 -4 13 -10 16 -5 3
-10 2 -10 -4z"/>
<path d="M2840 20 c0 -5 5 -10 11 -10 5 0 7 5 4 10 -3 6 -8 10 -11 10 -2 0 -4
-4 -4 -10z"/>
<path d="M3302 18 c6 -17 38 -19 38 -2 0 8 -9 14 -21 14 -11 0 -19 -5 -17 -12z"/>
<path d="M1530 8 c0 -4 7 -8 15 -8 8 0 15 4 15 8 0 5 -7 9 -15 9 -8 0 -15 -4
-15 -9z"/>
<path d="M3255 10 c-3 -5 3 -10 14 -10 12 0 21 5 21 10 0 6 -6 10 -14 10 -8 0
-18 -4 -21 -10z"/>
</g>
</svg>
